<svg id="Group_77072" data-name="Group 77072" xmlns="http://www.w3.org/2000/svg" width="105.166" height="170.186" viewBox="0 0 105.166 170.186">
  <path id="Path_69922" data-name="Path 69922" d="M501.322,637.017a57.906,57.906,0,0,1,.554-7.3c.856-4.178,3.071-7.3,7.45-8.406a9.013,9.013,0,0,1,2.315-.2h25.621c5.688,0,9.463,3.02,10.419,8.658a58.167,58.167,0,0,1,.5,6.695,1.477,1.477,0,0,0,.5.151c6.695-.05,13.389.1,20.084-.252a24.269,24.269,0,0,0,8.507-2.265,10.092,10.092,0,0,0,4.832-13.691c-1.46-3.171-4.228-4.581-7.45-5.134-6.393-1.057-12.282.7-17.92,3.624-1.007.5-1.913,1.158-2.869,1.711a3.819,3.819,0,0,1-5.185-1.409,3.72,3.72,0,0,1,1.107-5.134c7.953-5.084,16.51-7.9,26.074-6.443,8.154,1.258,13.742,6.8,14.748,14.446,1.107,8.758-2.869,16.007-10.621,19.43a34.624,34.624,0,0,1-13.842,2.869h-6.242c.252.453.352.7.5.956a19.882,19.882,0,0,1,3.222,11.275v9.312a19.4,19.4,0,0,1-4.883,13.188c-4.228,4.883-4.279,10.822-.151,15.755a19.45,19.45,0,0,1,4.681,12.987c0,16.208.05,32.416,0,48.574-.05,11.376-8.305,19.782-19.732,19.883-12.685.1-25.419.1-38.1,0-11.325-.1-19.631-8.2-19.732-19.581-.151-16.309-.05-32.567-.05-48.876a18.438,18.438,0,0,1,4.933-12.584c4.53-5.084,4.581-11.175.151-16.309a18.428,18.428,0,0,1-4.732-11.93c-.1-3.775-.151-7.55,0-11.326.352-9.061,5.738-15.856,14.446-18.423C500.718,637.218,501.02,637.067,501.322,637.017Zm-7.9,95.386v23.708c0,7.55,4.782,12.433,12.332,12.433,12.483.05,24.916.05,37.4,0,7.55,0,12.332-4.832,12.383-12.383.05-16.107,0-32.215,0-48.272a12.2,12.2,0,0,0-2.869-8c-6.544-8-6.493-17.92.2-25.772a11.664,11.664,0,0,0,2.97-7.953c-.05-3.171,0-6.292,0-9.463-.05-7.45-4.883-12.232-12.332-12.282h-22.1a3.933,3.933,0,0,1-4.178-3.926c0-2.164,1.661-3.725,4.077-3.826,1.913-.05,3.775,0,5.688,0,3.977,0,7.953,0,11.93-.05.453,0,1.309-.5,1.359-.805a25.185,25.185,0,0,0-.2-4.782c-.3-1.812-.956-2.215-2.819-2.215H512.4c-1.862,0-2.416.4-2.819,2.215a9.187,9.187,0,0,0-.252,2.013c0,2.315,0,4.631.05,7,.05,2.517-1.46,4.279-3.826,4.329-6.9.252-11.577,4.983-11.678,11.879-.05,3.322,0,6.695,0,10.017a11.475,11.475,0,0,0,2.919,7.7c6.846,8,6.846,18.272-.1,26.175a12.118,12.118,0,0,0-3.171,8.607C493.47,716.7,493.419,724.551,493.419,732.4Z" transform="translate(-485.635 -606.186)" fill="#e58f9a"/>
  <path id="Path_69923" data-name="Path 69923" d="M563.563,611.769c-.1,2.114-.755,3.372-2.215,4.027a3.688,3.688,0,0,1-4.43-.755c-1.913-1.762-4.128-2.617-6.644-1.862a10.21,10.21,0,0,0-3.221,1.812c-1.862,1.51-4.128,1.56-5.638,0-1.56-1.661-1.46-3.926.3-5.688a14.583,14.583,0,0,1,20.537.151A9.321,9.321,0,0,1,563.563,611.769Z" transform="translate(-512.792 -605.149)" fill="#e58f9a"/>
</svg>
