<svg xmlns="http://www.w3.org/2000/svg" width="172.694" height="170.186" viewBox="0 0 172.694 170.186">
  <g id="Group_77071" data-name="Group 77071" transform="translate(0)">
    <path id="Path_69917" data-name="Path 69917" d="M668.195,119.822h53.371a7.947,7.947,0,0,1,2.228.2,2.781,2.781,0,0,1,2.076,3.19,2.7,2.7,0,0,1-2.582,2.582,28.471,28.471,0,0,1-3.646.051c-.152,1.468-.3,2.785-.506,4.152-2.228,15.748-9.975,28.407-21.926,38.636-12.862,11.039-28,17.217-44.763,19.445-18.381,2.431-36.1.051-52.865-8-15.6-7.444-27.85-18.482-35.142-34.433a52.679,52.679,0,0,1-4.709-18.432c-.051-.354-.1-.709-.2-1.367-1.063,0-2.127.051-3.19,0a3.012,3.012,0,0,1-3.14-2.886,2.947,2.947,0,0,1,3.038-3.139c.557-.051,1.114,0,1.722,0h53.979c.253-2.684.3-5.317.76-7.9a22.382,22.382,0,0,1,11.444-15.951c6.684-3.848,13.621-7.19,20.508-10.634a131.951,131.951,0,0,0,25.015-15.647,32.869,32.869,0,0,0,3.089-2.431,21.451,21.451,0,0,1,1.975-4.051c10.178-13.368,20.457-26.686,30.686-40,2.734-3.545,6.33-5.114,10.684-4.1a10.577,10.577,0,0,1,8.254,7.8,9.53,9.53,0,0,1-2.228,9.52Q704.577,55.564,686.93,74.7c-.2.253-.405.608-.658.658-2.633.354-2.684,2.785-3.646,4.456-6.988,12.254-10.735,25.673-14.33,39.142A1.975,1.975,0,0,1,668.195,119.822ZM565.756,126c.253,2.076.405,4,.81,5.874,3.14,15.8,12.2,27.648,25.217,36.661a80.347,80.347,0,0,0,38.839,13.875c17.976,1.722,35.041-1.266,50.89-10.077,12.963-7.241,22.989-17.267,28.61-31.243a45.1,45.1,0,0,0,3.342-15.14C664.195,126,615.127,126,565.756,126ZM684.146,68.881a15.61,15.61,0,0,1,1.165-1.266c10.583-11.6,21.217-23.09,31.8-34.636,2.228-2.431,2.177-4.912-.152-6.887s-4.811-1.57-6.836,1.063q-14.2,18.457-28.407,36.965c-.405.506-.81,1.063-1.266,1.671C681.766,66.856,682.88,67.767,684.146,68.881Zm-57.827,50.941c2.431,0,4.659.1,6.836-.051a3.7,3.7,0,0,0,2.481-1.165c5.57-6.532,11.039-13.166,16.558-19.748,2.431-2.937,4.912-5.874,7.342-8.811-.152-.152-.253-.3-.405-.456-8.608,6.684-17.267,13.318-25.724,20.153A24.9,24.9,0,0,0,626.318,119.822Zm-7.444.2a6.627,6.627,0,0,0,1.367-1.57,32.733,32.733,0,0,1,8.912-13.014c5.317-4.557,10.988-8.71,16.508-13.064.506-.405,1.013-.76,1.469-1.165a7.467,7.467,0,0,1-.405-.658c-6.988,3.848-14.178,7.393-20.913,11.7C619.634,106.251,617.862,112.581,618.875,120.024Zm23.749-.2c2.684,0,4.912-.1,7.089.051a2.562,2.562,0,0,0,2.785-1.62c3.848-7.9,7.8-15.7,11.7-23.6.051-.1-.051-.3-.1-.658C657,102.605,649.966,111.011,642.623,119.822Zm22.888-13.216c-.1-.051-.253-.1-.354-.152-2.127,4.355-4.3,8.76-6.735,13.723,1.468-.861,2.988.608,3.6-1.317C663.232,114.809,664.346,110.707,665.511,106.606Z" transform="translate(-553.197 -18.802)" fill="#e58f9a"/>
    <path id="Path_69918" data-name="Path 69918" d="M739.308,73.1c-.253-.911-.506-1.519-.608-2.127a2.84,2.84,0,0,1,1.823-3.342,2.654,2.654,0,0,1,3.7,1.317,97.823,97.823,0,0,1,3.241,9.874c.456,1.671-.709,2.836-2.38,3.393-2.633.861-5.266,1.722-7.95,2.532-2.076.658-3.7,0-4.253-1.62-.658-1.772.152-3.241,2.279-4.1.253-.1.506-.2,1.215-.506-6.532-2.582-12.761-4.709-19.445-3.494-4.456.81-6.33,3.848-5.57,8.355.861,5.165,3.443,9.57,6.38,13.773A11.081,11.081,0,0,1,719,99.031a2.854,2.854,0,0,1-.911,3.7,2.654,2.654,0,0,1-3.8-.253c-4.709-5.975-8.71-12.355-9.115-20.2-.405-7.747,4.861-13.064,12.912-13.571,6.735-.456,13.014,1.266,19.191,3.646C737.839,72.548,738.4,72.75,739.308,73.1Z" transform="translate(-628.209 -42.775)" fill="#e58f9a"/>
    <path id="Path_69919" data-name="Path 69919" d="M802.2,165.4a14.875,14.875,0,0,1,.81,1.772,2.832,2.832,0,0,1-1.266,3.747,2.63,2.63,0,0,1-3.848-.81c-1.772-2.886-3.443-5.874-4.962-8.912a2.575,2.575,0,0,1,1.165-3.443c2.785-1.62,5.621-3.19,8.456-4.659a2.8,2.8,0,0,1,3.9,1.215,2.965,2.965,0,0,1-.962,4c-.506.354-1.063.658-1.874,1.165,4.962,1.519,9.621,2.582,14.533,1.519,4.152-.911,6.026-3.95,5.216-8.406-.81-4.709-3.089-8.76-5.722-12.659-1.165-1.722-2.532-3.291-3.747-5.013a2.917,2.917,0,0,1,.456-4.2,2.858,2.858,0,0,1,4.1.354c5.114,6.178,9.57,12.71,10.938,20.862,1.317,8.051-3.443,14.33-11.6,15.343a36.947,36.947,0,0,1-13.52-1.266A8.679,8.679,0,0,0,802.2,165.4Z" transform="translate(-671.398 -73.699)" fill="#e58f9a"/>
    <path id="Path_69920" data-name="Path 69920" d="M653.888,305.036a3.069,3.069,0,0,1-3.8,3.241,73.841,73.841,0,0,1-32.863-14.685c-2.684-2.127-5.114-4.507-7.6-6.836-1.722-1.62-1.823-3.494-.506-4.81,1.367-1.317,3.139-1.165,4.81.557a67.922,67.922,0,0,0,34.383,19.191c1.063.253,2.127.405,3.139.658A2.872,2.872,0,0,1,653.888,305.036Z" transform="translate(-571.663 -152.632)" fill="#e58f9a"/>
    <path id="Path_69921" data-name="Path 69921" d="M599.277,262.115c-.76.81-1.418,2.076-2.329,2.279-1.013.2-2.785-.152-3.291-.911a34.919,34.919,0,0,1-3.494-6.684,2.66,2.66,0,0,1,1.367-3.545c1.418-.76,2.886-.608,3.7.709,1.367,2.177,2.431,4.557,3.6,6.836a1.818,1.818,0,0,1,.1.911A2.541,2.541,0,0,1,599.277,262.115Z" transform="translate(-562.625 -138.676)" fill="#e58f9a"/>
  </g>
</svg>
