<?xml version="1.0" encoding="utf-8"?>
<!-- Generator: Adobe Illustrator 27.1.1, SVG Export Plug-In . SVG Version: 6.00 Build 0)  -->
<svg version="1.1" id="Group_77100" xmlns="http://www.w3.org/2000/svg" xmlns:xlink="http://www.w3.org/1999/xlink" x="0px"
	 y="0px" viewBox="0 0 156.4 172.8" style="enable-background:new 0 0 156.4 172.8;" xml:space="preserve">
<style type="text/css">
	.st0{fill:none;stroke:#E58F9A;stroke-width:2;stroke-miterlimit:10;}
</style>
<path class="st0" d="M93.2,69.6H2c-1.1,0-2-0.9-2-2V55.3c0-1.1,0.9-2,2-2h91.1c1.1,0,2,0.9,2,2v12.3C95.2,68.7,94.3,69.6,93.2,69.6z
	"/>
<path class="st0" d="M87.4,41.8H8.2c-1.3,0-2.3,1-2.3,2.3v8.6h83.7v-8.6C89.6,42.8,88.6,41.8,87.4,41.8z"/>
<path class="st0" d="M84.1,41.3c0,0,0.1-22-36.5-21.7h0.2c-36.6-0.3-36.5,21.7-36.5,21.7"/>
<path class="st0" d="M42.5,16.3H24.6c-4.5,0-8.1-3.6-8.1-8.1v0c0-4.5,3.6-8.1,8.1-8.1h17.9c4.5,0,8.1,3.6,8.1,8.1v0
	C50.6,12.6,47,16.3,42.5,16.3z"/>
<line class="st0" x1="24.6" y1="16.3" x2="24.6" y2="23.6"/>
<line class="st0" x1="42.5" y1="16.3" x2="42.5" y2="19.6"/>
<path class="st0" d="M75,26.3v-10c0-4.5-3.7-8.2-8.2-8.2h0c-4.5,0-8.2,3.7-8.2,8.2v3.9"/>
<path class="st0" d="M77.1,169.6c-0.2,1.8-1.8,3.2-3.6,3.2H17.3c-1.9,0-3.5-1.5-3.6-3.4L5.9,69.6h82.8l-4.6,38.6"/>
<path class="st0" d="M7.5,90.6c0,0,25.9,2.9,37.8-5.5s41.9-2.6,41.9-2.6"/>
<path class="st0" d="M69.6,170.4L69.6,170.4c-13.7,0-24.8-11.1-24.8-24.8v-33.5c0-1.9,1.6-3.5,3.5-3.5h46v37
	C94.3,159.3,83.2,170.4,69.6,170.4z"/>
<path class="st0" d="M148.1,125.3H94.3v-16.7h53.8c4.6,0,8.3,3.7,8.3,8.3v0C156.4,121.6,152.7,125.3,148.1,125.3z"/>
<line class="st0" x1="64.1" y1="122.1" x2="44.8" y2="122.1"/>
<line class="st0" x1="64.1" y1="134" x2="44.8" y2="134"/>
<path class="st0" d="M44.8,148.8c0,0,11.9,2.3,20.4-4.9c5.7-4.8,10.1-5.1,12.5-4.8c1.9,0.3,3.8-0.2,5.3-1.4c0.8-0.7,1.5-1.6,1.8-2.7
	c1.1-3.8,5-6.1,8.7-4.8c0.3,0.1,0.5,0.2,0.8,0.3"/>
</svg>
