<?xml version="1.0" encoding="utf-8"?>
<!-- Generator: Adobe Illustrator 27.1.1, SVG Export Plug-In . SVG Version: 6.00 Build 0)  -->
<svg version="1.1" id="Group_77072" xmlns="http://www.w3.org/2000/svg" xmlns:xlink="http://www.w3.org/1999/xlink" x="0px"
	 y="0px" viewBox="0 0 105.2 170.2" style="enable-background:new 0 0 105.2 170.2;" xml:space="preserve">
<style type="text/css">
	.st0{fill:none;stroke:#E58F9A;stroke-width:2;stroke-miterlimit:10;}
	.st1{fill:none;stroke:#E58F9A;stroke-width:2;stroke-linecap:round;stroke-miterlimit:10;}
</style>
<path class="st0" d="M39.1,170.1h20.5c18.7-1.5,18.6-18.5,18.6-18.5v-51.1c0.1-5.3-3.6-10-4.9-11.5c-0.7-0.9-1.4-1.8-2-2.7
	c-1.5-2.8-3.2-7.8,0.9-12.4c5.7-6.1,5.6-12.6,5.6-12.6V49.5c-0.6-16.7-15.3-18.7-15.3-18.7c1.8-15.9-9-15.9-9-15.9H39.1H24.7
	c0,0-10.8,0-9,15.9c0,0-14.7,2-15.3,18.7v11.8c0,0-0.1,6.5,5.6,12.6c4.1,4.6,2.5,9.6,0.9,12.4c-0.5,1-1.2,1.9-2,2.7
	c-1.3,1.5-5,6.2-4.9,11.5v51.1c0,0-0.1,17,18.6,18.5H39.1z"/>
<path class="st1" d="M32.8,30.9h51.8c0,0,14.5-0.4,12.9-13S82.9,5.2,68.2,13.8"/>
<path class="st1" d="M28.6,8.5L32.9,6c3.8-2.2,8.6-2.2,12.4,0l4.2,2.5"/>
</svg>
