<?xml version="1.0" encoding="utf-8"?>
<!-- Generator: Adobe Illustrator 27.1.1, SVG Export Plug-In . SVG Version: 6.00 Build 0)  -->
<svg version="1.1" id="Layer_1" xmlns="http://www.w3.org/2000/svg" xmlns:xlink="http://www.w3.org/1999/xlink" x="0px" y="0px"
	 viewBox="0 0 86.3 170.8" style="enable-background:new 0 0 86.3 170.8;" xml:space="preserve">
<style type="text/css">
	.st0{fill:none;stroke:#E58F9A;stroke-width:2;stroke-miterlimit:10;}
	.st1{fill:#E58F9A;}
</style>
<path class="st0" d="M42.2,170.6h28.2c1.5,0,3-0.2,4.5-0.7c11.1-3.8,10.6-17.1,10.6-17.1V77c-0.7-12.8-7.9-26.7-7.9-26.7L65.2,24.2
	l-22.9-0.1h1.1l-22.9,0.1L8,50.3c0,0-7.2,13.9-7.9,26.7v75.8c0,0-0.5,13.4,10.6,17.1c1.4,0.5,3,0.7,4.5,0.7h28.2H42.2z"/>
<path class="st0" d="M61.8,24H24.9c-6.6,0-12-5.4-12-12v0c0-6.6,5.4-12,12-12h36.9c6.6,0,12,5.4,12,12v0C73.8,18.6,68.4,24,61.8,24z
	"/>
<line class="st0" x1="0.1" y1="83.9" x2="86.2" y2="83.9"/>
<line class="st0" x1="0.1" y1="120.7" x2="86.2" y2="120.7"/>
<g>
	<path class="st1" d="M33.9,93.1v18.6h-2.2V96.9l-7.7,14.9h-1.6l-7.7-14.8v14.8h-2.2V93.1H15l8.3,16.1l8.3-16.1H33.9z"/>
	<path class="st1" d="M41.1,92.9v18.8h-2.2V92.9H41.1z"/>
	<path class="st1" d="M48.2,110.2h7.8v1.5H46V92.9h2.2V110.2z"/>
	<path class="st1" d="M70.8,111.7l-9.5-8.7v8.7h-2.2V92.9h2.2v8.8l9.5-8.8h2.8l-10.2,9.4l10.3,9.4H70.8z"/>
</g>
</svg>
