<?xml version="1.0" encoding="utf-8"?>
<!-- Generator: Adobe Illustrator 27.1.1, SVG Export Plug-In . SVG Version: 6.00 Build 0)  -->
<svg version="1.1" id="Layer_1" xmlns="http://www.w3.org/2000/svg" xmlns:xlink="http://www.w3.org/1999/xlink" x="0px" y="0px"
	 viewBox="0 0 172.7 170.2" style="enable-background:new 0 0 172.7 170.2;" xml:space="preserve">
<style type="text/css">
	.st0{fill:none;stroke:#E58F9A;stroke-width:2;stroke-linecap:round;stroke-miterlimit:10;}
</style>
<path class="st0" d="M137,87v13.8c0,37.5-30.2,67.8-67.4,67.8h0c-37.2,0-67.4-30.4-67.4-67.8V86.8"/>
<ellipse class="st0" cx="69.7" cy="86.8" rx="67.4" ry="13"/>
<path class="st0" d="M20,106.8c0,0,0,4.3,0.6,6.6"/>
<path class="st0" d="M21.8,118c0,0,9.5,33.8,44.8,32.8"/>
<path class="st0" d="M44.2,65.2c0,0,3.7,28.7,6,33.3"/>
<path class="st0" d="M49.4,64.3c0,0,12.8,33.8,14.5,35.4"/>
<path class="st0" d="M55.5,63.1c0,0,21.6,28.1,23.9,36.1"/>
<path class="st0" d="M62,61.9c0,0,33.6,24.8,33.5,36.9"/>
<path class="st0" d="M25.4,49.1C11.7,54.5,3.3,59.5,4.1,62.5c1.4,5.3,30.6,2.4,65.4-6.6s61.8-20.4,60.5-25.7
	c-1.4-5.3-30.6-2.4-65.4,6.6"/>
<line class="st0" x1="15.4" y1="5.1" x2="47.1" y2="61"/>
<line class="st0" x1="21.4" y1="1.2" x2="54.2" y2="59.5"/>
</svg>
