<svg id="Group_77183" data-name="Group 77183" xmlns="http://www.w3.org/2000/svg" xmlns:xlink="http://www.w3.org/1999/xlink" width="267.283" height="273.722" viewBox="0 0 267.283 273.722">
  <defs>
    <clipPath id="clip-path">
      <rect id="Rectangle_10946" data-name="Rectangle 10946" width="267.283" height="273.722" fill="none"/>
    </clipPath>
  </defs>
  <g id="Group_77182" data-name="Group 77182" clip-path="url(#clip-path)">
    <path id="Path_70158" data-name="Path 70158" d="M136.953,273.679c1.27-8.236-9.224-20.194-14.251-26.444A259.442,259.442,0,0,0,80.477,208.08c-2.978-2.4-6.194-4.875-9.04-7.371-9.789-8.445-19.011-17.514-27.96-26.834C28.823,159.082,16,142.156,8.164,122.715c-10.4-25.645-11.538-55.8.512-81.128A104.741,104.741,0,0,1,19.863,25.574C41.3.122,74.695-6.068,105.164,5.824c12.476,6.04,23.885,14.706,32.012,26.037C149.569,49.1,153.3,71.689,148.469,92.205l-1.149-1.7c2.569.482,5.687,1.242,6.788,4.087a5.023,5.023,0,0,1-2.077,5.41c-2.579,1.649-5.551.165-7.666-1.469l1.7-.384a60.273,60.273,0,0,1-21.71,24.121,70.133,70.133,0,0,1-30.482,10.54c15.843-2.347,31.234-9.944,41.686-22.206a60.428,60.428,0,0,0,9.066-14.628c1.759,1.274,4.768,3.678,6.543,1.5,2.362-3.451-3.229-4.205-5.63-4.466,7.751-36.014-8.955-67.705-42.065-83.089C76.864-.327,45.668,4.405,26.128,26.023A98.473,98.473,0,0,0,13.144,43.811C3.8,63.072,2.867,85.95,7.845,106.613c5.962,24.832,20.911,46.42,38.4,64.654,10.492,11.207,21.3,22.254,33.027,32.148l2.952,2.441a205.16,205.16,0,0,1,20.467,17.8c9.476,9.5,36.719,36.907,34.265,50.027" fill="#e58f9a"/>
    <path id="Path_70159" data-name="Path 70159" d="M137.113,273.722c-1.746-13.661,14.7-32.193,23.24-42.156,16.982-19.136,36.592-35.728,55.942-52.309a260.511,260.511,0,0,0,22.984-24.151c7.583-9.2,14.639-19.229,19.255-30.255a37.5,37.5,0,0,0,3.006-11.139c.408-2.294.551-5.11.761-7.428.06-1.037.048-3.406.093-4.448.476-43.9-46.3-70.384-84.283-49.207a66.14,66.14,0,0,0-21.934,20.383c-3.5,4.974-7.064,10.084-8.319,16.147.868-6.113,4.163-11.61,7.422-16.737a66.281,66.281,0,0,1,21.584-21.908c40-24.1,90.751,4.233,90.415,51.278.023,1.107-.08,3.681-.076,4.736-.212,2.425-.352,5.415-.757,7.8a42.068,42.068,0,0,1-3.291,12.426c-4.893,11.539-12.2,21.853-20.167,31.434-3.662,4.387-8.482,9.69-12.543,13.678-2.14,2.193-6.621,6.5-8.9,8.551-1.3,1.158-3.211,3.057-4.586,4.155-18.869,15.505-81.789,65.308-79.843,89.151" fill="#e58f9a"/>
  </g>
</svg>
