<svg id="Group_77083" data-name="Group 77083" xmlns="http://www.w3.org/2000/svg" xmlns:xlink="http://www.w3.org/1999/xlink" width="73.664" height="108" viewBox="0 0 73.664 108">
  <defs>
    <clipPath id="clip-path">
      <rect id="Rectangle_10920" data-name="Rectangle 10920" width="73.664" height="108" fill="#fff"/>
    </clipPath>
  </defs>
  <g id="Group_77083-2" data-name="Group 77083" clip-path="url(#clip-path)">
    <path id="Path_69924" data-name="Path 69924" d="M53.186,51.127c-.623.924-1.175,1.763-1.748,2.587A50.681,50.681,0,0,1,29.083,71.491c-2.394,1.018-4.878,1.83-7.337,2.689-1.545.54-2.457-.212-2.435-1.856.032-2.434.069-4.871.007-7.3a8.106,8.106,0,0,0-15.59-2.995,6.1,6.1,0,0,0-.563,2.084,53.663,53.663,0,0,0,0,5.734,5.245,5.245,0,0,0,2.215,3.893A9.95,9.95,0,0,1,9.2,79.854,3.244,3.244,0,0,0,15.591,80c.233-.836.388-1.694.622-2.53A1.5,1.5,0,0,1,18,76.33a1.327,1.327,0,0,1,1.229,1.438,11.23,11.23,0,0,1-1.619,5.256,6.055,6.055,0,0,1-6.485,2.538,5.939,5.939,0,0,1-4.886-4.736A8.306,8.306,0,0,0,3.18,75.945,7.959,7.959,0,0,1,.027,69.7a37.061,37.061,0,0,1,.358-7.346c.785-4.313,4.626-7.586,9.292-8.363a11.4,11.4,0,0,1,11.043,5.155,11.508,11.508,0,0,1,1.739,6.272c-.024,1.675,0,3.351,0,5.134a5.754,5.754,0,0,0,.829-.146c8.781-3.038,16.559-7.632,22.687-14.742A43.9,43.9,0,0,0,56.164,34.1c.123-.712.187-1.436.264-2.155.111-1.04.78-1.7,1.663-1.633a1.622,1.622,0,0,1,1.436,1.921,38.577,38.577,0,0,1-1.9,8.987c-.508,1.507-1.123,2.979-1.686,4.467a5.646,5.646,0,0,0,.13,3.827A16.99,16.99,0,0,0,60.327,56.2c2.919,2.979,5.979,5.818,8.948,8.749a33.78,33.78,0,0,1,3.05,3.327c1.978,2.561,1.737,5.26-.544,7.578a17.59,17.59,0,0,1-5.148,3.5c-1.208.57-1.215.572-.787,1.856a8.443,8.443,0,0,0,2.013,3.5,2.946,2.946,0,0,1,.33,3.711,23.757,23.757,0,0,1-2.433,3.469,1.158,1.158,0,0,0-.22,1.377c.519,1.252.971,2.537,1.369,3.834a2.131,2.131,0,0,1-.706,2.363c-1.353,1.137-2.714,2.266-4.118,3.337a1.577,1.577,0,0,0-.641,1.9,22.47,22.47,0,0,1,.424,9.9c-1.271,6.145-5.755,9.293-11.948,8.3-2.569-.413-5.107-1.033-7.682-1.4-3.255-.462-5.384.674-6.735,3.676a58.992,58.992,0,0,0-1.934,5.65c-.091.273-.124.565-.2.843A1.618,1.618,0,0,1,31.527,133a1.564,1.564,0,0,1-1.18-2.01,44.567,44.567,0,0,1,1.9-6.211,38.384,38.384,0,0,1,2.949-4.842c-.785-.172-1.753-.395-2.726-.6-2.921-.6-5.845-1.186-8.764-1.792a1.631,1.631,0,0,1-1.364-1.821A1.608,1.608,0,0,1,24.4,114.5Q32.913,116.242,41.42,118c2.778.573,5.543,1.21,8.332,1.722a8.618,8.618,0,0,0,5.375-.413,6.66,6.66,0,0,0,3.677-5.362,19.868,19.868,0,0,0-.777-9.77,2.139,2.139,0,0,1,.571-2.323c.975-.945,2.033-1.806,3.06-2.7.175-.152.381-.268.549-.426.515-.485,1.462-1.009,1.433-1.468a8.533,8.533,0,0,0-1.03-2.823c-.059-.128-.565-.158-.811-.075-1.51.506-2.993,1.092-4.507,1.585-1.358.442-2.482-.484-2.1-1.776a2.118,2.118,0,0,1,1.14-1.148c1.686-.691,3.419-1.27,5.141-1.87,1.973-.688,2.9-2.389,3.88-4.02.091-.152-.066-.556-.226-.74a14.715,14.715,0,0,1-2.991-7.121c-.19-.966.223-1.452,1.269-1.888a18.352,18.352,0,0,0,5.879-3.465c1.627-1.562,1.743-2.58.184-4.227-1.95-2.06-4.027-4-6.08-5.961-3.084-2.943-6.22-5.838-8.5-9.493-.594-.951-1.079-1.97-1.7-3.112" transform="translate(0 -25.033)" fill="#fff"/>
    <path id="Path_69925" data-name="Path 69925" d="M356.838,11.219c-.094,6.973-1.7,12.359-4.94,17.252a1.423,1.423,0,0,1-1.85.7,2.348,2.348,0,0,1-1.034-1.327c-.11-.346.175-.889.411-1.263a26.9,26.9,0,0,0,3.4-7.671,27.192,27.192,0,0,0-.907-16.391,2.188,2.188,0,0,1-.135-1.484,2.183,2.183,0,0,1,1.269-.985,1.288,1.288,0,0,1,1.568.938,35.657,35.657,0,0,1,1.412,4.638c.436,2.207.65,4.459.807,5.6" transform="translate(-288.289 0.001)" fill="#fff"/>
    <path id="Path_69926" data-name="Path 69926" d="M43.953,220.592a4.805,4.805,0,0,1,3.7-4.835,4.729,4.729,0,0,1,5.493,3.04c.413.983.753,2,1.073,3.02a1.508,1.508,0,0,1-.97,2.016,1.541,1.541,0,0,1-1.948-.992c-.329-.833-.608-1.685-.908-2.529-.4-1.121-1.069-1.656-1.914-1.533-.923.134-1.476.835-1.4,2.067.084,1.362-.8,2.234-1.959,1.985-.829-.178-1.193-.9-1.164-2.238" transform="translate(-36.307 -178.141)" fill="#fff"/>
    <path id="Path_69927" data-name="Path 69927" d="M244.688,373.925a2.083,2.083,0,1,1,.045,4.166,2.093,2.093,0,0,1-2.117-2.064,2.07,2.07,0,0,1,2.072-2.1" transform="translate(-200.416 -308.887)" fill="#fff"/>
    <path id="Path_69928" data-name="Path 69928" d="M232.291,430.279a2.075,2.075,0,1,1,2.078-2.077,2.034,2.034,0,0,1-2.078,2.077" transform="translate(-190.17 -352.01)" fill="#fff"/>
    <path id="Path_69929" data-name="Path 69929" d="M191.815,300.184a2.074,2.074,0,1,1,2.115-2.073,2.1,2.1,0,0,1-2.115,2.073" transform="translate(-156.719 -244.546)" fill="#fff"/>
    <path id="Path_69930" data-name="Path 69930" d="M142.094,338.318a2.078,2.078,0,1,1-2.107-2.076,2.089,2.089,0,0,1,2.107,2.076" transform="translate(-113.946 -277.758)" fill="#fff"/>
    <path id="Path_69931" data-name="Path 69931" d="M112.328,395.372a2.09,2.09,0,1,1-2.1-2.063,2.058,2.058,0,0,1,2.1,2.063" transform="translate(-89.339 -324.9)" fill="#fff"/>
    <path id="Path_69932" data-name="Path 69932" d="M191.765,371.473a2.055,2.055,0,0,1-2.048-2.122,2.106,2.106,0,0,1,4.21.106,2.1,2.1,0,0,1-2.162,2.016" transform="translate(-156.718 -303.434)" fill="#fff"/>
    <path id="Path_69933" data-name="Path 69933" d="M249.3,313.321a2.09,2.09,0,1,1-.033-4.18,2.09,2.09,0,1,1,.033,4.18" transform="translate(-204.187 -255.37)" fill="#fff"/>
    <path id="Path_69934" data-name="Path 69934" d="M165.032,438.709a2.064,2.064,0,1,1-2.077,2.057,2.006,2.006,0,0,1,2.077-2.057" transform="translate(-134.612 -362.402)" fill="#fff"/>
  </g>
</svg>
