<svg xmlns="http://www.w3.org/2000/svg" xmlns:xlink="http://www.w3.org/1999/xlink" width="273.082" height="274.771" viewBox="0 0 273.082 274.771">
  <defs>
    <clipPath id="clip-path">
      <rect id="Rectangle_10941" data-name="Rectangle 10941" width="273.082" height="274.771" transform="translate(0 -0.001)" fill="none"/>
    </clipPath>
  </defs>
  <g id="Group_77172" data-name="Group 77172" transform="translate(0 0.001)">
    <g id="Group_77171" data-name="Group 77171" clip-path="url(#clip-path)">
      <path id="Path_70146" data-name="Path 70146" d="M273.068,104.426A63.141,63.141,0,0,0,162.71,62.63a60.136,60.136,0,0,0-5.131,6.689.094.094,0,0,1-.172-.047,93.054,93.054,0,0,0-3.252-15.705C147.567,31.283,129.552,13.1,107.9,5.1A82.952,82.952,0,0,0,71.652.349C48.606,2.483,28.238,15.482,15.362,34.511,2.7,53.233-2.257,76.765.946,99.065c6.4,45.221,41.1,78.723,75.055,105.851,8.53,6.816,17.093,13.515,25.376,20.5,4.159,3.475,8.185,7.082,12.2,10.695,1.96,1.853,3.976,3.658,5.884,5.561,1.94,1.863,3.918,3.742,5.75,5.685a72.185,72.185,0,0,1,10.06,12.4,43.814,43.814,0,0,1,3.569,7.135,66.9,66.9,0,0,1,1.941,7.839c.01.051.022.052.036,0,.039-.143.134-.484.282-1.016.108-.357.2-.8.333-1.319.151-.518.343-1.112.524-1.78a63.045,63.045,0,0,1,4.437-10.884,75.556,75.556,0,0,1,10.2-15.075,158.781,158.781,0,0,1,17.3-16.782c6.793-5.75,14.378-11.786,22.5-18.106s16.762-12.979,25.4-20.313a244.214,244.214,0,0,0,25.32-24.28c7.938-9,15.176-19.184,19.994-30.68a73.761,73.761,0,0,0,5.963-30.075m-1.658-.848a67.5,67.5,0,0,1-5.543,24.345,88.632,88.632,0,0,1-8.339,15.111,136.46,136.46,0,0,1-10.805,13.916q-5.905,6.613-12.256,12.822c-4.226,4.122-8.59,8.065-12.974,11.882-8.812,7.587-17.57,14.832-25.914,21.755s-16.267,13.545-23.3,20.039a172.738,172.738,0,0,0-18.108,18.989c-4.871,6.168-8.513,12.127-10.511,17.475-.262.661-.482,1.319-.674,1.968s-.424,1.257-.571,1.872a31.392,31.392,0,0,0-.7,3.486,25.047,25.047,0,0,0-.311,3.03c-.008.116-.009.223-.014.334,0,.026-.012.026-.017,0a36.39,36.39,0,0,0-3.328-9.913,72.588,72.588,0,0,0-9.8-14.306,274.031,274.031,0,0,0-24.471-24.371c-8.59-7.664-17.435-15-26.145-22.382s-17.332-14.816-25.3-22.658A212.84,212.84,0,0,1,30.3,152a151.821,151.821,0,0,1-16.738-27.911C.626,95.429.14,61.442,18.517,34.837,29.965,18.267,49.131,5.92,69.643,3.639,102.169.02,135.824,18.579,148.2,48.4A66.242,66.242,0,0,1,151,92.078a.065.065,0,0,0,.048.079h0A12.369,12.369,0,0,1,155.9,93.8a2.739,2.739,0,0,1,.929,1.242,3.33,3.33,0,0,1-.23,2.6,3.786,3.786,0,0,1-2.326,2.062c-2.195.543-4.924-1.484-5.341-1.8a.054.054,0,0,0-.074.012l-.006.012c-.252.605-.531,1.231-.849,1.875a32.739,32.739,0,0,1-1.821,3.229,63.294,63.294,0,0,1-8.908,10.986,65.641,65.641,0,0,1-11.029,8.72,72.7,72.7,0,0,1-12.79,6.375A54.343,54.343,0,0,1,105.5,131.5a69.094,69.094,0,0,1-8.333,1.11,64.528,64.528,0,0,0,8.1-.058,57.266,57.266,0,0,0,15.642-3.6,63.335,63.335,0,0,0,24.055-16.407q1.557-1.706,2.982-3.521c.814-1.127,1.647-2.247,2.445-3.39l.773-1.243.113-.046a12.6,12.6,0,0,0,3.086.581,6.584,6.584,0,0,0,3.381-1.026,7,7,0,0,0,1.272-1.026,6.883,6.883,0,0,0,.964-1.139,12.658,12.658,0,0,0,2.343-6.233,6.449,6.449,0,0,0-.05-1.564,7.1,7.1,0,0,0-.424-1.657,6.743,6.743,0,0,0-.928-1.541,7,7,0,0,0-2.672-2.035l-.09-.04a.067.067,0,0,1-.036-.083c.055-.212.241-.932.335-1.323a57.863,57.863,0,0,0,1.4-8.751c.118-1.42.189-2.88.2-4.318a.591.591,0,0,1,.075-.31,64.964,64.964,0,0,1,12.016-14.359,61.353,61.353,0,0,1,31.664-14.744q1.986-.3,3.989-.475a61.423,61.423,0,0,1,27.4,3.955,59.568,59.568,0,0,1,24.273,17.916c8.683,10.866,12.4,24.119,11.943,37.406" fill="#e58f9a"/>
      <path id="Path_70147" data-name="Path 70147" d="M188.256,94.99a.063.063,0,0,1,.077-.042.065.065,0,0,1,.023.013,13.764,13.764,0,0,0,4.882,3.558,12.838,12.838,0,0,0,5.672.408.062.062,0,0,1,.066.058.071.071,0,0,1-.007.032c-1.344,2.474-4.406,4.082-7.178,3.086a5.908,5.908,0,0,1-3.538-7.113" fill="#e58f9a"/>
      <path id="Path_70148" data-name="Path 70148" d="M221.641,48.738a54.583,54.583,0,0,0-43.418,20.241c4.238,9.041.818,28.269-10.482,22.03,2.476,1.84,4.469,3.076,9.229,1.292-2.751,3.41-6.893,6.215-11.284,6.666a16.519,16.519,0,0,0-.168,6.286q-7.938,32.673,20.506,41.481c-9.372,3.2-17.9,17.772-19.641,28.388,6.015-13.2,16.305-26.673,29.049-27.59-23.829-6.949-33.09-19.441-26.668-41.713a24.868,24.868,0,0,1-.08-4.622c11.247-.159,15.78-18.586,14.356-27.251a29.472,29.472,0,0,0,31.553,3.071,30.32,30.32,0,0,0,7.28,30.382c12.68,12.971,25.5,9.11,32.213,8.5,8.489-.772,14.482,10.266,11.839,13.333,16.117-36.127-2.155-81.83-44.285-80.495" fill="#e58f9a" fill-rule="evenodd"/>
    </g>
  </g>
</svg>
