<svg xmlns="http://www.w3.org/2000/svg" width="13.233" height="13.233" viewBox="0 0 13.233 13.233">
  <path id="Icon_ionic-ios-checkbox" data-name="Icon ionic-ios-checkbox" d="M16.63,4.5H5.6A1.1,1.1,0,0,0,4.5,5.6V16.63a1.1,1.1,0,0,0,1.1,1.1H16.63a1.1,1.1,0,0,0,1.1-1.1V5.6A1.1,1.1,0,0,0,16.63,4.5ZM14.821,9.135l-4.607,4.628h0a.622.622,0,0,1-.4.19.6.6,0,0,1-.4-.2l-1.93-1.93a.137.137,0,0,1,0-.2l.613-.613a.133.133,0,0,1,.193,0l1.53,1.53,4.2-4.235a.136.136,0,0,1,.1-.041h0a.125.125,0,0,1,.1.041l.6.624A.136.136,0,0,1,14.821,9.135Z" transform="translate(-4.5 -4.5)" fill="#2d2d2d"/>
</svg>
