<svg id="Group_77145" data-name="Group 77145" xmlns="http://www.w3.org/2000/svg" xmlns:xlink="http://www.w3.org/1999/xlink" width="108.001" height="108" viewBox="0 0 108.001 108">
  <defs>
    <clipPath id="clip-path">
      <rect id="Rectangle_10921" data-name="Rectangle 10921" width="108.002" height="108" fill="#fff"/>
    </clipPath>
  </defs>
  <g id="Group_77084" data-name="Group 77084" clip-path="url(#clip-path)">
    <path id="Path_69935" data-name="Path 69935" d="M24.255,29.033c-1.434-.6-2.844-1.144-4.2-1.787-1.394-.659-2.754-1.394-4.1-2.141a1.7,1.7,0,1,1,1.678-2.917c5.9,3.5,12.378,5.379,19.042,6.718A82.509,82.509,0,0,0,55.1,30.524a61.42,61.42,0,0,0,24.38-5.181,41.834,41.834,0,0,0,9.141-5.667c.217-.178.43-.363.652-.534a1.675,1.675,0,0,1,2.47.167,1.656,1.656,0,0,1-.371,2.444,35.422,35.422,0,0,1-3.289,2.492,4.629,4.629,0,0,0-1.891,2.47A26.543,26.543,0,0,0,84.7,37.162c.227,6.033.737,12.055,1.038,18.086.187,3.756.3,7.521.256,11.279a13.054,13.054,0,0,1-.916,4.338c-1.026,2.721-3.321,4-6.014,4.625a14.916,14.916,0,0,1-7.673-.336c-3.6-1.074-7.162-2.281-10.671-3.614-3.051-1.159-5.971-1.583-9.01.018-3.518,1.854-6.272,4.323-7.44,8.268a15.6,15.6,0,0,0,.155,8.156,45.03,45.03,0,0,0,8.309,17.059,3.847,3.847,0,0,1,.425.621,1.618,1.618,0,0,1-.513,2.1,1.927,1.927,0,0,1-2.171-.21c-.719-.861-1.416-1.747-2.051-2.672a46.178,46.178,0,0,1-7.6-17.573,17.736,17.736,0,0,1,.068-7.935,1.679,1.679,0,0,0,.054-.332c0-.05-.038-.1-.069-.177-1.259-.169-2.547-.262-3.8-.525A27.615,27.615,0,0,1,27.8,74.274a1.386,1.386,0,0,0-1.588-.083,19.8,19.8,0,0,1-13.735,1.875c-5.357-1.29-8.732-4.84-10.728-9.831a27.215,27.215,0,0,1-1.135-15.5c.8-4.217,1.8-8.4,2.678-12.6a25.8,25.8,0,0,0,.225-8.472c-.5-4.04-1.058-8.075-1.486-12.123a15.582,15.582,0,0,1,.917-7.628,12.33,12.33,0,0,1,12.7-7.266A32.375,32.375,0,0,1,28.28,7.277a49.624,49.624,0,0,0,13.383,5.829c12.485,2.967,24.185,1.21,34.988-5.885A50.048,50.048,0,0,1,88.633,1.137C92.259-.036,95.941-.582,99.6.9c4.45,1.8,7.557,4.821,8.266,9.789a14.956,14.956,0,0,1-1.092,7.763,55.377,55.377,0,0,1-3.321,6.982,28.283,28.283,0,0,0-3.6,17.68c.5,4.663,1.092,9.32,1.452,13.995a57.953,57.953,0,0,1-.851,16.772,18.75,18.75,0,0,1-9.9,13.014A23.885,23.885,0,0,1,70.8,88.769c-2.1-.687-4.107-1.651-6.155-2.49-.306-.125-.605-.264-1.023-.447-.1,1.091-.189,2.088-.3,3.083-.508,4.633-1,9.269-1.554,13.9a25.439,25.439,0,0,1-.809,3.693,1.656,1.656,0,0,1-2.065,1.355c-1.026-.313-1.367-1.2-1.137-2.351.483-2.419.977-4.847,1.256-7.295.508-4.465.851-8.948,1.3-13.42a1.237,1.237,0,0,0-.675-1.361C58.3,82.6,57,81.7,55.712,80.8a1.731,1.731,0,0,1-.644-2.468,1.7,1.7,0,0,1,2.589-.263,55.558,55.558,0,0,0,12,6.775c4.841,1.868,9.77,2.56,14.835.988A23.1,23.1,0,0,0,93.2,80.846c2.122-1.916,3.1-4.5,3.807-7.193a43.669,43.669,0,0,0,1.12-11.205A125.187,125.187,0,0,0,96.875,47c-.571-4.5-.95-9-.085-13.511a32.984,32.984,0,0,1,3.983-10.137,31.738,31.738,0,0,0,3.5-8.36C106.177,6.98,98.911,2.749,93.551,3.5a32.667,32.667,0,0,0-11.793,4.52c-2.845,1.64-5.556,3.53-8.476,5.018a45.305,45.305,0,0,1-21.575,4.788,48.092,48.092,0,0,1-24.274-7.137,33.64,33.64,0,0,0-10.6-4.431c-3.706-.738-6.978-.013-9.564,2.926a8.541,8.541,0,0,0-1.905,6.137c.075,2.6.366,5.208.681,7.8.521,4.291,1.449,8.565.9,12.907C6.6,38.8,5.992,41.551,5.393,44.29c-1,4.554-2.171,9.077-1.966,13.8a20.475,20.475,0,0,0,1.948,8.049C7.7,71,11.642,73.23,16.965,73.117a18.233,18.233,0,0,0,5.922-1.164c4.659-1.708,6.787-5.225,7.112-9.968a22.385,22.385,0,0,0-1.747-9.372,57.023,57.023,0,0,0-5.308-10.694,5.261,5.261,0,0,1-.672-3.241A33.6,33.6,0,0,1,24.018,29.7c.07-.209.149-.416.238-.663M29.71,71.526a23.411,23.411,0,0,0,7.363,3.341,33.82,33.82,0,0,0,4.662.427,1.548,1.548,0,0,0,1.373-.779,16.325,16.325,0,0,1,2.881-3.153,5.477,5.477,0,0,0,2.225-3.673c.062-.331.151-.656.223-.985,1.168-5.36.422-10.288-3.369-14.482-1.24-1.373-2.565-2.671-3.89-3.965-.9-.876-1.079-1.794-.409-2.585a1.744,1.744,0,0,1,2.673.042c1.244,1.176,2.445,2.4,3.638,3.626a2.387,2.387,0,0,1,.326.779l.427-.28c.408-.946.874-1.872,1.212-2.842,1.571-4.506,1.437-8.834-1.536-12.788a2.032,2.032,0,0,0-1.29-.738,91.306,91.306,0,0,1-17.94-3.289c-.644-.187-.943-.052-1.089.575-.54,2.32-1.122,4.631-1.622,6.959a3.977,3.977,0,0,0,.645,3.1A56.952,56.952,0,0,1,31.871,52.64a8.49,8.49,0,0,0,7.463,5.92,1.72,1.72,0,0,1,1.684,1.984c-.1,1.009-.7,1.455-1.923,1.372a11.475,11.475,0,0,1-4.963-1.464c-.208-.118-.425-.22-.757-.391A15.9,15.9,0,0,1,29.71,71.526M81.176,37.862a7.676,7.676,0,0,1-.762.466,12.449,12.449,0,0,1-3.073,1.306,61.416,61.416,0,0,1-6.442.453,1.665,1.665,0,0,1-1.883-1.7,1.709,1.709,0,0,1,1.869-1.645c1.039-.022,2.079-.007,3.118-.007,4.481,0,7.239-2.416,7.83-6.85.093-.7.248-1.391.39-2.174-1.716.71-3.277,1.411-4.878,2.007a57.4,57.4,0,0,1-14.37,3.428c-.523.052-.953.143-1.127.779-.914,3.34-.965,6.624.749,9.732,1.588,2.877,3.857,4.863,7.32,5.111a1.677,1.677,0,1,1-.159,3.349,10.4,10.4,0,0,1-4.893-1.387c-.748-.43-1.446-.948-2.165-1.426-.052.031-.117.049-.142.091a6,6,0,0,0-.326.586,17.967,17.967,0,0,0,1.44,18.543A3.38,3.38,0,0,0,65.087,69.6a33,33,0,0,0,3.235,1.2c2.782.906,5.593,1.785,8.563,1.548,3.779-.3,5.3-1.77,5.534-4.52.245-2.871.147-5.771.193-8.659,0-.033-.074-.067-.116-.1-.053.013-.123.01-.158.043-2.994,2.835-6.707,2.984-10.5,2.786A1.635,1.635,0,0,1,70.2,59.971a1.686,1.686,0,0,1,1.806-1.424c1.458-.048,2.932.031,4.372-.153a6.67,6.67,0,0,0,5.682-6.919c-.391-4.333-.54-8.688-.8-13.034-.009-.159-.05-.316-.093-.579M59.05,67.465c-.145-.36-.241-.617-.349-.869a21.19,21.19,0,0,1-1.686-6.83,22.02,22.02,0,0,1,2.9-12.605,1.279,1.279,0,0,0-.011-1.451A14.927,14.927,0,0,1,58,35.826c.106-.712.242-1.42.357-2.09H51.39a1.059,1.059,0,0,0,0,.28c.13.28.267.556.4.832a15.032,15.032,0,0,1,1.541,6.326,21.073,21.073,0,0,1-3.113,11.287,1.255,1.255,0,0,0-.122,1.026,17.92,17.92,0,0,1,2.081,11.06c-.12,1.1-.306,2.2-.482,3.448a13.964,13.964,0,0,1,7.349-.531" transform="translate(0 -0.001)" fill="#fff"/>
  </g>
</svg>
