<svg id="Group_33" data-name="Group 33" xmlns="http://www.w3.org/2000/svg" xmlns:xlink="http://www.w3.org/1999/xlink" width="108.81" height="108.835" viewBox="0 0 108.81 108.835">
  <defs>
    <clipPath id="clip-path">
      <rect id="Rectangle_13" data-name="Rectangle 13" width="108.81" height="108.835" fill="#fff"/>
    </clipPath>
  </defs>
  <g id="Group_32" data-name="Group 32" clip-path="url(#clip-path)">
    <path id="Path_384" data-name="Path 384" d="M62.7,0c.388.156.786.291,1.161.472A5.368,5.368,0,0,1,67.1,5.543q.069,5.312,0,10.626a5.552,5.552,0,0,1-3.8,5.365c.746,1,1.454,1.945,2.165,2.892,1.636,2.181,3.249,4.379,4.916,6.535a10.022,10.022,0,0,1,2.151,6.4c-.037,7.828-.006,15.656-.027,23.484a1.229,1.229,0,0,0,.887,1.412A6.252,6.252,0,0,1,77.148,66.2c.626,1.766,1.235,3.54,1.773,5.334a1.217,1.217,0,0,0,1.407,1.023q10.889-.054,21.779-.016a6.371,6.371,0,0,1,6.7,6.121,6.307,6.307,0,0,1-6.333,6.571q-9.986.051-19.973-.013A1.39,1.39,0,0,0,80.9,86.4c-1.98,6.086-4.032,12.149-6.063,18.218a5.5,5.5,0,0,1-5.864,4.219q-29.641,0-59.282,0c-4.991,0-8.268-2.557-9.518-7.4A.969.969,0,0,0,0,101.183V35.5a15.046,15.046,0,0,1,3.048-5.725c1.892-2.421,3.7-4.909,5.54-7.37.2-.27.384-.554.605-.875C6.9,20.517,5.5,18.9,5.471,16.4q-.063-5.513,0-11.027A5.159,5.159,0,0,1,8.546.553c.4-.2.82-.369,1.231-.552Zm6.155,50.878H3.679V83.342H37.737c-.424-1.3-.831-2.462-1.186-3.643a5.464,5.464,0,0,1,3.106-6.763,1.933,1.933,0,0,0,.918-.992c.693-1.892,1.262-3.829,1.952-5.723a6.384,6.384,0,0,1,5.247-4.415,22.675,22.675,0,0,1,3.812-.132,3.631,3.631,0,0,0,2.963-1.366,6.674,6.674,0,0,1,10.6.008,3.613,3.613,0,0,0,3.7,1.259ZM3.634,47.1H68.892c0-3.357-.021-6.644.01-9.932a6.067,6.067,0,0,0-1.28-3.844c-2.73-3.616-5.425-7.259-8.184-10.853a1.994,1.994,0,0,0-1.378-.694q-21.829-.055-43.657,0a1.739,1.739,0,0,0-1.212.591C10.373,26.053,7.561,29.742,4.852,33.5a5.918,5.918,0,0,0-1.164,3c-.142,3.5-.055,7-.055,10.6M77.471,85.248H76.019c-1.771,0-3.543.024-5.313-.017a1.8,1.8,0,0,1-1.8-1.742,1.842,1.842,0,0,1,1.8-1.854c.317-.023.637-.008.956-.008H101.63a8.738,8.738,0,0,0,1.167-.032,2.7,2.7,0,0,0,.094-5.352,5.544,5.544,0,0,0-.951-.068q-29.806,0-59.612,0c-2.115,0-2.813.989-2.14,3.012q4.037,12.128,8.085,24.252c.483,1.447.943,1.774,2.489,1.775q9.085,0,18.17,0c1.542,0,1.99-.326,2.477-1.786q2.033-6.088,4.06-12.179l2-6M3.621,87.083c0,4.1,0,8.025,0,11.951,0,4,2.169,6.179,6.157,6.18q17.05,0,34.1,0h1.117c-.137-.457-.227-.793-.338-1.124-1.765-5.3-3.554-10.59-5.279-15.9a1.348,1.348,0,0,0-1.539-1.127c-11.012.033-22.025.022-33.037.022H3.621m32.617-68.96q12.431,0,24.863,0c1.779,0,2.377-.584,2.382-2.344q.016-4.888,0-9.777c-.005-1.745-.637-2.375-2.373-2.376q-24.863,0-49.726,0c-1.682,0-2.292.617-2.3,2.313q-.013,4.835,0,9.671c0,2.016.5,2.513,2.5,2.513q12.325,0,24.651,0M44.231,72.49H75.458c-.652-1.882-1.205-3.706-1.92-5.465a2.892,2.892,0,0,0-2.823-1.731c-1.026-.03-2.054,0-3.08-.018a6.615,6.615,0,0,1-4.956-2.292c-1.936-2.133-3.73-2.155-5.633-.044A6.713,6.713,0,0,1,51.9,65.283c-.991.005-1.984-.023-2.974.014a2.9,2.9,0,0,0-2.8,1.771c-.695,1.731-1.239,3.524-1.892,5.422" transform="translate(0 -0.001)" fill="#fff"/>
    <path id="Path_385" data-name="Path 385" d="M59.2,124.979H34.672a7.533,7.533,0,0,1-1.06-.025,1.782,1.782,0,0,1-.4-3.433,3.765,3.765,0,0,1,1.248-.159q24.792-.011,49.584,0a4.635,4.635,0,0,1,.846.041,1.82,1.82,0,0,1,1.527,1.884,1.758,1.758,0,0,1-1.732,1.678c-1.237.044-2.477.018-3.716.019H59.2" transform="translate(-22.954 -86.903)" fill="#fff"/>
    <path id="Path_386" data-name="Path 386" d="M29.11,326.811c1.837,0,3.5-.009,5.157,0,1.323.01,2.055.637,2.08,1.744.025,1.137-.753,1.859-2.09,1.871-2.229.019-4.459.024-6.688,0a1.876,1.876,0,0,1-2.074-2.131q-.027-3.345,0-6.69a1.8,1.8,0,0,1,1.812-2.038c1.107,0,1.786.744,1.8,2.029.017,1.691,0,3.382,0,5.213" transform="translate(-18.246 -228.843)" fill="#fff"/>
    <path id="Path_387" data-name="Path 387" d="M99.386,29.152c0,.637.033,1.276-.008,1.91a1.794,1.794,0,0,1-3.584.022c-.053-1.236-.048-2.478-.006-3.715a1.8,1.8,0,0,1,3.593-.022c.036.6.007,1.2.006,1.8" transform="translate(-68.57 -18.305)" fill="#fff"/>
    <path id="Path_388" data-name="Path 388" d="M70.308,29.186c0-.637-.034-1.276.008-1.91a1.8,1.8,0,0,1,1.71-1.709,1.757,1.757,0,0,1,1.845,1.561,32.844,32.844,0,0,1,0,4.135,1.7,1.7,0,0,1-1.854,1.525A1.745,1.745,0,0,1,70.308,31.1c-.007-.07-.008-.141-.008-.212q0-.849,0-1.7Z" transform="translate(-50.338 -18.307)" fill="#fff"/>
    <path id="Path_389" data-name="Path 389" d="M124.891,29.222c0,.6.028,1.2-.005,1.8a1.791,1.791,0,0,1-3.578.095,35.217,35.217,0,0,1,.009-3.925,1.776,1.776,0,0,1,1.894-1.629,1.8,1.8,0,0,1,1.673,1.744c.037.635.007,1.274.008,1.91" transform="translate(-86.833 -18.306)" fill="#fff"/>
    <path id="Path_390" data-name="Path 390" d="M48.35,29.239a17.813,17.813,0,0,1-.012,1.908,1.756,1.756,0,0,1-1.87,1.641,1.707,1.707,0,0,1-1.7-1.79q-.055-1.8,0-3.608a1.782,1.782,0,0,1,1.7-1.823,1.832,1.832,0,0,1,1.89,1.763c.054.632.01,1.272.01,1.909h-.01" transform="translate(-32.035 -18.307)" fill="#fff"/>
    <path id="Path_391" data-name="Path 391" d="M150.493,29.205c0,.636.034,1.276-.01,1.909a1.7,1.7,0,0,1-1.6,1.667,1.658,1.658,0,0,1-1.908-1.442A28.3,28.3,0,0,1,146.983,27a1.689,1.689,0,0,1,1.823-1.439,1.775,1.775,0,0,1,1.68,1.731c.041.635.008,1.273.006,1.909" transform="translate(-105.191 -18.305)" fill="#fff"/>
    <path id="Path_392" data-name="Path 392" d="M176.044,29.249c0,.636.043,1.276-.01,1.908A1.65,1.65,0,0,1,174.41,32.8a1.629,1.629,0,0,1-1.882-1.461,29.026,29.026,0,0,1-.006-4.231,1.629,1.629,0,0,1,1.753-1.513,1.759,1.759,0,0,1,1.765,1.639,2.467,2.467,0,0,1,.024.317c0,.566,0,1.132,0,1.7h-.021" transform="translate(-123.491 -18.328)" fill="#fff"/>
    <path id="Path_393" data-name="Path 393" d="M198.085,29.134c0-.636-.048-1.277.011-1.907a1.761,1.761,0,0,1,1.747-1.66A1.689,1.689,0,0,1,201.6,27.08a29.55,29.55,0,0,1,0,4.23,1.583,1.583,0,0,1-1.764,1.478,1.658,1.658,0,0,1-1.721-1.536,20.337,20.337,0,0,1-.014-2.118h-.015" transform="translate(-141.836 -18.309)" fill="#fff"/>
  </g>
</svg>
