<svg id="Group_76778" data-name="Group 76778" xmlns="http://www.w3.org/2000/svg" xmlns:xlink="http://www.w3.org/1999/xlink" width="387" height="95.354" viewBox="0 0 387 95.354">
  <defs>
    <clipPath id="clip-path">
      <rect id="Rectangle_10866" data-name="Rectangle 10866" width="387" height="95.354" fill="#e58f9a"/>
    </clipPath>
  </defs>
  <g id="Group_76774" data-name="Group 76774" clip-path="url(#clip-path)">
    <path id="Path_22165" data-name="Path 22165" d="M94.761,36.238a21.928,21.928,0,0,0-14.3-20.5,21.884,21.884,0,0,0-24,6,20.868,20.868,0,0,0-1.78,2.321.033.033,0,0,1-.06-.016,32.268,32.268,0,0,0-1.128-5.45,26.368,26.368,0,0,0-16.05-16.82A28.785,28.785,0,0,0,24.865.121,26.715,26.715,0,0,0,5.331,11.976a32.165,32.165,0,0,0-5,22.4C2.551,50.07,14.591,61.7,26.374,71.11c2.96,2.365,5.932,4.69,8.806,7.114,1.443,1.206,2.84,2.458,4.235,3.711.68.643,1.38,1.269,2.042,1.93s1.36,1.3,2,1.973a25.056,25.056,0,0,1,3.491,4.3,15.218,15.218,0,0,1,1.238,2.476,23.209,23.209,0,0,1,.673,2.72c0,.018.008.018.013,0l.1-.353c.037-.124.071-.277.115-.458s.119-.386.182-.618a21.876,21.876,0,0,1,1.54-3.777A26.2,26.2,0,0,1,54.341,84.9a55.055,55.055,0,0,1,6-5.824c2.357-2,4.989-4.09,7.81-6.283s5.817-4.5,8.813-7.049a84.818,84.818,0,0,0,8.787-8.426,39.282,39.282,0,0,0,6.938-10.647,25.6,25.6,0,0,0,2.069-10.437m-3.524.9A23.075,23.075,0,0,1,89.424,45.3a29.931,29.931,0,0,1-2.729,5.063,45.58,45.58,0,0,1-3.536,4.663q-1.932,2.216-4.01,4.3c-1.383,1.381-2.811,2.7-4.246,3.982-2.883,2.542-5.75,4.97-8.48,7.29S61.1,75.133,58.8,77.309a57.32,57.32,0,0,0-5.925,6.363,22.887,22.887,0,0,0-3.44,5.856c-.086.221-.158.442-.22.659s-.139.421-.187.627a10.742,10.742,0,0,0-.229,1.168,8.566,8.566,0,0,0-.1,1.015c0,.039,0,.075,0,.112,0,.009,0,.009-.006,0A12.4,12.4,0,0,0,47.6,89.788a24.381,24.381,0,0,0-3.208-4.794,90.765,90.765,0,0,0-8.008-8.167c-2.81-2.569-5.705-5.028-8.555-7.5s-5.67-4.965-8.277-7.594a70.825,70.825,0,0,1-7.209-8.367,51.11,51.11,0,0,1-5.477-9.352c-4.234-9.6-4.392-20.991,1.621-29.906A24.086,24.086,0,0,1,25.213,3.654c10.644-1.212,21.656,5.006,25.708,15a22.692,22.692,0,0,1,.915,14.635.022.022,0,0,0,.017.027,3.982,3.982,0,0,1,1.587.549.913.913,0,0,1,.3.416,1.14,1.14,0,0,1-.075.872,1.249,1.249,0,0,1-.761.691,2.482,2.482,0,0,1-1.748-.6.017.017,0,0,0-.026.008c-.082.2-.175.413-.278.629a11.113,11.113,0,0,1-.6,1.082,21.143,21.143,0,0,1-2.915,3.681,21.58,21.58,0,0,1-3.611,2.922A23.579,23.579,0,0,1,39.547,45.7a17.472,17.472,0,0,1-2.6.8,22.128,22.128,0,0,1-2.727.372,20.573,20.573,0,0,0,2.65-.019,18.363,18.363,0,0,0,5.119-1.207,20.478,20.478,0,0,0,4.257-2.285,20.876,20.876,0,0,0,3.615-3.212q.51-.571.976-1.179c.267-.378.539-.753.8-1.136l.253-.416.037-.015a4.049,4.049,0,0,0,1.01.195,2.12,2.12,0,0,0,1.106-.344,2.3,2.3,0,0,0,.416-.344,2.274,2.274,0,0,0,.315-.381,4.3,4.3,0,0,0,.766-2.088,2.195,2.195,0,0,0-.013-.523,2.409,2.409,0,0,0-.138-.554,2.265,2.265,0,0,0-.3-.517,2.3,2.3,0,0,0-.874-.682l-.029-.013a.023.023,0,0,1-.012-.028c.018-.071.079-.312.11-.443a19.854,19.854,0,0,0,.458-2.932c.038-.476.062-.965.064-1.447a.2.2,0,0,1,.024-.1,21.669,21.669,0,0,1,3.932-4.811,19.876,19.876,0,0,1,10.361-4.941q.65-.1,1.305-.159a19.667,19.667,0,0,1,8.965,1.325,18.786,18.786,0,0,1,4.284,2.43,18.733,18.733,0,0,1,7.567,16.108" transform="translate(0 0.001)" fill="#e58f9a"/>
    <path id="Path_22166" data-name="Path 22166" d="M379.5,191.569a.021.021,0,0,1,.036-.01,4.776,4.776,0,0,0,1.694,1.235,4.455,4.455,0,0,0,1.968.142.021.021,0,0,1,.021.031,2.127,2.127,0,0,1-2.491,1.071,2.05,2.05,0,0,1-1.228-2.468" transform="translate(-314.167 -158.605)" fill="#e58f9a"/>
    <path id="Path_22167" data-name="Path 22167" d="M350.271,101.754a18.61,18.61,0,0,0-14.876,7.023c1.452,3.138.28,9.81-3.592,7.645a2.724,2.724,0,0,0,3.162.448,6,6,0,0,1-3.866,2.313,5.8,5.8,0,0,0-.057,2.181q-2.72,11.338,7.026,14.395c-3.211,1.109-6.132,6.167-6.73,9.851,2.062-4.582,5.588-9.256,9.954-9.574-8.165-2.412-11.338-6.746-9.138-14.475a8.766,8.766,0,0,1-.027-1.6c3.854-.055,5.407-6.45,4.919-9.457a9.993,9.993,0,0,0,10.811,1.066,10.617,10.617,0,0,0,2.493,10.544c4.345,4.5,8.737,3.161,11.038,2.949,2.909-.268,2.776,2.87,1.871,3.934,8.52-10.019,1.8-26.995-12.988-27.24" transform="translate(-273.61 -84.25)" fill="#e58f9a" fill-rule="evenodd"/>
    <path id="Path_22168" data-name="Path 22168" d="M645.793,173.671v1.959a.44.44,0,0,1-.466.466h-6.156a.2.2,0,0,0-.186.187v29.1a.441.441,0,0,1-.466.466H636.14a.441.441,0,0,1-.466-.466v-29.1a.2.2,0,0,0-.187-.187H629.7a.441.441,0,0,1-.466-.466v-1.959a.441.441,0,0,1,.466-.466h15.622a.44.44,0,0,1,.466.466" transform="translate(-521.006 -143.413)" fill="#666"/>
    <path id="Path_22169" data-name="Path 22169" d="M765.6,189.339v16.042a.441.441,0,0,1-.467.466h-2.378a.441.441,0,0,1-.467-.466V189.619c0-3.031-1.352-4.8-3.731-4.8-2.472,0-4.01,1.912-4.01,5.036v15.529a.441.441,0,0,1-.467.466H751.7a.441.441,0,0,1-.466-.466V173.67a.441.441,0,0,1,.466-.466h2.378a.441.441,0,0,1,.467.466v10.586c0,.14.14.186.233.047a5.753,5.753,0,0,1,4.85-2.378c3.824,0,5.969,2.751,5.969,7.415" transform="translate(-622.018 -143.412)" fill="#666"/>
    <path id="Path_22170" data-name="Path 22170" d="M877.333,237.064H866.7a.2.2,0,0,0-.186.186v3.4c0,2.612,1.632,4.43,3.964,4.43a3.919,3.919,0,0,0,3.917-3.264c.093-.28.233-.42.513-.42l2.332.093a.421.421,0,0,1,.42.513c-.513,3.638-3.078,5.969-7.182,5.969-4.43,0-7.275-2.845-7.275-7.135V230.768c0-4.2,2.845-7.135,7.275-7.135,4.523,0,7.322,2.938,7.322,7.135V236.6a.441.441,0,0,1-.466.466M866.514,231v3.124a.2.2,0,0,0,.186.187h7.648a.2.2,0,0,0,.186-.187V231c0-2.658-1.632-4.477-4.057-4.477-2.332,0-3.964,1.819-3.964,4.477" transform="translate(-714.727 -185.167)" fill="#666"/>
    <path id="Path_22171" data-name="Path 22171" d="M1033.459,205.382V173.671a.441.441,0,0,1,.466-.466h2.425a.491.491,0,0,1,.513.373l5.223,12.638a.146.146,0,0,0,.28,0l5.27-12.638a.491.491,0,0,1,.513-.373h2.425a.441.441,0,0,1,.466.466v31.711a.441.441,0,0,1-.466.466H1048.2a.441.441,0,0,1-.467-.466V181.506c0-.186-.187-.186-.233-.047l-4.757,10.819c-.093.28-.233.373-.419.373a.476.476,0,0,1-.466-.373L1037,181.413c-.047-.14-.233-.14-.233.047v23.923a.441.441,0,0,1-.466.466h-2.378a.441.441,0,0,1-.466-.466" transform="translate(-855.698 -143.413)" fill="#666"/>
    <path id="Path_22172" data-name="Path 22172" d="M1181.571,225.8h2.378a.44.44,0,0,1,.466.466v22.664a.44.44,0,0,1-.466.466h-2.378a.44.44,0,0,1-.466-.466v-1.586c0-.186-.14-.186-.233-.047a5.017,5.017,0,0,1-4.664,2.425c-3.544,0-6.109-2.1-6.109-6.855v-16.6a.441.441,0,0,1,.466-.466h2.378a.44.44,0,0,1,.466.466v15.855c0,3.171,1.352,4.71,3.731,4.71,2.471,0,3.964-1.912,3.964-5.036V226.268a.44.44,0,0,1,.466-.466" transform="translate(-968.835 -186.963)" fill="#666"/>
    <path id="Path_22173" data-name="Path 22173" d="M1311.167,231.645v15.716a.441.441,0,0,1-.466.466h-2.332a.441.441,0,0,1-.466-.466V231.925c0-3.218-1.492-5.13-3.637-5.13-2.332,0-3.824,1.912-3.824,5.037v15.529a.44.44,0,0,1-.466.466H1297.6a.44.44,0,0,1-.466-.466V231.925c0-3.218-1.492-5.13-3.591-5.13-2.379,0-3.871,1.912-3.871,5.037v15.529a.441.441,0,0,1-.466.466h-2.332a.44.44,0,0,1-.466-.466V224.7a.44.44,0,0,1,.466-.466h2.332a.44.44,0,0,1,.466.466v1.446c0,.14.093.187.233.047a5.745,5.745,0,0,1,4.664-2.285,5.294,5.294,0,0,1,5.083,3.311c.046.14.186.14.28-.047a5.769,5.769,0,0,1,5.363-3.265c3.731,0,5.876,2.938,5.876,7.741" transform="translate(-1065.135 -185.391)" fill="#666"/>
    <path id="Path_22174" data-name="Path 22174" d="M1486.572,231.645v15.716a.441.441,0,0,1-.467.466h-2.332a.441.441,0,0,1-.467-.466V231.925c0-3.218-1.492-5.13-3.637-5.13-2.332,0-3.824,1.912-3.824,5.037v15.529a.441.441,0,0,1-.467.466H1473a.44.44,0,0,1-.466-.466V231.925c0-3.218-1.492-5.13-3.591-5.13-2.378,0-3.871,1.912-3.871,5.037v15.529a.44.44,0,0,1-.466.466h-2.332a.44.44,0,0,1-.466-.466V224.7a.44.44,0,0,1,.466-.466h2.332a.44.44,0,0,1,.466.466v1.446c0,.14.094.187.233.047a5.745,5.745,0,0,1,4.663-2.285,5.294,5.294,0,0,1,5.083,3.311c.047.14.187.14.28-.047a5.77,5.77,0,0,1,5.363-3.265c3.731,0,5.876,2.938,5.876,7.741" transform="translate(-1210.37 -185.391)" fill="#666"/>
    <path id="Path_22175" data-name="Path 22175" d="M1624.929,258.26v-1.912c0-.28.094-.466.233-.466h.233c2.8,0,3.637-1.119,4.617-6.342.046-.093,0-.187,0-.28l-5.923-22.944c-.094-.326.093-.513.42-.513h2.518a.47.47,0,0,1,.513.42l4.1,18.327c.046.187.14.187.187,0l4.057-18.327a.47.47,0,0,1,.513-.42l2.612.046a.361.361,0,0,1,.373.513l-6.482,25.089c-1.585,5.969-2.845,7.275-7.462,7.275h-.233c-.14,0-.28-.187-.28-.466" transform="translate(-1344.718 -186.964)" fill="#666"/>
    <path id="Path_22176" data-name="Path 22176" d="M1727.768,242.448v-.326a.441.441,0,0,1,.466-.466h2.239c.28,0,.467.14.467.373v.373a3.656,3.656,0,0,0,3.964,3.544,3.5,3.5,0,0,0,3.731-3.637c0-2.612-2.379-3.5-4.757-4.524-2.611-1.073-5.922-2.472-5.922-6.9,0-4.011,2.7-6.435,6.808-6.435,4.291,0,6.9,2.611,6.9,6.482v.14a.441.441,0,0,1-.466.466h-2.145c-.28,0-.466-.14-.466-.373v-.373a3.565,3.565,0,0,0-3.778-3.638,3.513,3.513,0,0,0-3.684,3.638c0,2.425,2.145,3.311,4.57,4.337,2.7,1.166,6.249,2.658,6.249,7.042,0,3.871-2.751,6.342-7.088,6.342s-7.089-2.425-7.089-6.062" transform="translate(-1430.582 -185.841)" fill="#666"/>
    <path id="Path_22177" data-name="Path 22177" d="M1848.947,189.339v16.042a.44.44,0,0,1-.466.466H1846.1a.44.44,0,0,1-.466-.466V189.619c0-3.031-1.353-4.8-3.731-4.8-2.471,0-4.011,1.912-4.011,5.036v15.529a.44.44,0,0,1-.466.466h-2.378a.441.441,0,0,1-.466-.466V173.67a.441.441,0,0,1,.466-.466h2.378a.44.44,0,0,1,.466.466v10.586c0,.14.14.186.234.047a5.753,5.753,0,0,1,4.85-2.378c3.824,0,5.969,2.751,5.969,7.415" transform="translate(-1519.025 -143.412)" fill="#666"/>
    <path id="Path_22178" data-name="Path 22178" d="M1958.584,231.421v15.716a.441.441,0,0,1-.467.466h-2.378a.44.44,0,0,1-.466-.466v-1.352c0-.14-.093-.187-.233-.047a6.113,6.113,0,0,1-5.13,2.238c-2.658,0-6.343-1.119-6.343-6.669,0-5.6,3.684-7.648,8.3-7.648h3.218a.2.2,0,0,0,.187-.186v-1.819c0-3.078-1.492-5.13-3.917-5.13a3.567,3.567,0,0,0-3.591,3.311.477.477,0,0,1-.513.466l-2.565-.047a.386.386,0,0,1-.42-.466c.326-3.731,3.311-6.156,7.181-6.156,4.337,0,7.135,3.078,7.135,7.788m-3.311,9V236.5a.2.2,0,0,0-.187-.186h-3.265c-2.844,0-4.85,1.492-4.85,4.71,0,2.845,1.585,4.057,3.637,4.057a4.471,4.471,0,0,0,4.663-4.663" transform="translate(-1609.263 -185.167)" fill="#666"/>
    <path id="Path_22179" data-name="Path 22179" d="M2060.959,205.382V173.671a.441.441,0,0,1,.467-.466h2.378a.441.441,0,0,1,.466.466v18.747c0,.14.14.233.233.093l7-9.98a.567.567,0,0,1,.559-.28h2.426c.373,0,.513.28.28.56l-4.617,6.622a.286.286,0,0,0-.046.28l5.5,15.622c.094.326-.046.513-.373.513h-2.471a.607.607,0,0,1-.56-.373l-4.15-12.964c-.046-.186-.186-.14-.28-.047l-3.4,4.85a.354.354,0,0,0-.093.233v7.835a.441.441,0,0,1-.466.466h-2.378a.441.441,0,0,1-.467-.466" transform="translate(-1706.462 -143.413)" fill="#666"/>
    <path id="Path_22180" data-name="Path 22180" d="M2179.2,237.064h-10.632a.2.2,0,0,0-.187.186v3.4c0,2.612,1.632,4.43,3.964,4.43a3.92,3.92,0,0,0,3.917-3.264c.093-.28.233-.42.513-.42l2.331.093a.422.422,0,0,1,.42.513c-.513,3.638-3.078,5.969-7.182,5.969-4.431,0-7.275-2.845-7.275-7.135V230.768c0-4.2,2.844-7.135,7.275-7.135,4.523,0,7.321,2.938,7.321,7.135V236.6a.441.441,0,0,1-.466.466M2168.377,231v3.124a.2.2,0,0,0,.187.187h7.648a.2.2,0,0,0,.187-.187V231c0-2.658-1.632-4.477-4.057-4.477-2.332,0-3.964,1.819-3.964,4.477" transform="translate(-1792.662 -185.167)" fill="#666"/>
  </g>
</svg>
