<svg id="Group_76777" data-name="Group 76777" xmlns="http://www.w3.org/2000/svg" xmlns:xlink="http://www.w3.org/1999/xlink" width="398.932" height="98.294" viewBox="0 0 398.932 98.294">
  <defs>
    <clipPath id="clip-path">
      <rect id="Rectangle_10866" data-name="Rectangle 10866" width="398.932" height="98.294" fill="#e58f9a"/>
    </clipPath>
  </defs>
  <g id="Group_76774" data-name="Group 76774" clip-path="url(#clip-path)">
    <path id="Path_22165" data-name="Path 22165" d="M97.683,37.355A22.6,22.6,0,0,0,82.94,16.219,22.559,22.559,0,0,0,58.205,22.4,21.512,21.512,0,0,0,56.37,24.8a.034.034,0,0,1-.062-.017,33.263,33.263,0,0,0-1.163-5.618A27.181,27.181,0,0,0,38.6,1.823,29.673,29.673,0,0,0,25.632.124,27.539,27.539,0,0,0,5.5,12.345,33.157,33.157,0,0,0,.338,35.438C2.63,51.614,15.041,63.6,27.187,73.3c3.051,2.438,6.114,4.835,9.078,7.334,1.488,1.243,2.928,2.533,4.365,3.826.7.663,1.422,1.309,2.105,1.989s1.4,1.339,2.057,2.034a25.828,25.828,0,0,1,3.6,4.437,15.687,15.687,0,0,1,1.277,2.552,23.926,23.926,0,0,1,.694,2.8c0,.018.008.019.013,0l.1-.363c.038-.128.073-.286.119-.472s.123-.4.188-.637a22.55,22.55,0,0,1,1.587-3.894,27.012,27.012,0,0,1,3.648-5.393,56.755,56.755,0,0,1,6.188-6c2.43-2.057,5.143-4.216,8.051-6.477s6-4.643,9.084-7.266A87.435,87.435,0,0,0,88.4,59.089,40.494,40.494,0,0,0,95.55,48.114a26.389,26.389,0,0,0,2.133-10.759m-3.633.933a23.786,23.786,0,0,1-1.87,8.409,30.854,30.854,0,0,1-2.813,5.22,46.988,46.988,0,0,1-3.645,4.807q-1.992,2.284-4.134,4.429c-1.425,1.424-2.9,2.786-4.377,4.1-2.972,2.621-5.927,5.123-8.741,7.514s-5.487,4.679-7.86,6.922A59.088,59.088,0,0,0,54.5,86.252a23.593,23.593,0,0,0-3.546,6.036c-.088.228-.162.455-.227.679s-.143.434-.193.647a11.074,11.074,0,0,0-.236,1.2,8.83,8.83,0,0,0-.1,1.047c0,.04,0,.077,0,.115,0,.009,0,.009-.006,0a12.788,12.788,0,0,0-1.122-3.424,25.133,25.133,0,0,0-3.307-4.942A93.564,93.564,0,0,0,37.5,79.2c-2.9-2.648-5.881-5.183-8.819-7.731s-5.845-5.118-8.532-7.828a73.009,73.009,0,0,1-7.431-8.625,52.686,52.686,0,0,1-5.646-9.641c-4.364-9.9-4.528-21.638,1.671-30.828A24.829,24.829,0,0,1,25.99,3.767c10.972-1.25,22.324,5.16,26.5,15.462a23.392,23.392,0,0,1,.943,15.086.022.022,0,0,0,.017.028,4.1,4.1,0,0,1,1.636.566.941.941,0,0,1,.313.429,1.175,1.175,0,0,1-.077.9,1.287,1.287,0,0,1-.785.712,2.559,2.559,0,0,1-1.8-.62.018.018,0,0,0-.027.008c-.085.209-.18.425-.287.648a11.452,11.452,0,0,1-.614,1.115A21.794,21.794,0,0,1,48.8,41.894a22.246,22.246,0,0,1-3.722,3.012,24.307,24.307,0,0,1-4.315,2.2,18.01,18.01,0,0,1-2.682.822,22.81,22.81,0,0,1-2.811.383A21.207,21.207,0,0,0,38,48.293a18.929,18.929,0,0,0,5.276-1.244,21.109,21.109,0,0,0,4.388-2.356,21.52,21.52,0,0,0,3.726-3.311q.525-.589,1.006-1.216c.275-.39.556-.776.825-1.171l.261-.429.038-.016a4.174,4.174,0,0,0,1.041.2,2.185,2.185,0,0,0,1.14-.355,2.372,2.372,0,0,0,.429-.355,2.345,2.345,0,0,0,.325-.392,4.434,4.434,0,0,0,.79-2.153,2.263,2.263,0,0,0-.014-.54,2.484,2.484,0,0,0-.142-.571,2.335,2.335,0,0,0-.313-.532,2.366,2.366,0,0,0-.9-.7l-.03-.014a.023.023,0,0,1-.012-.029c.018-.073.081-.322.113-.457a20.466,20.466,0,0,0,.472-3.023c.04-.49.064-.995.066-1.491a.206.206,0,0,1,.025-.108,22.337,22.337,0,0,1,4.053-4.96,20.489,20.489,0,0,1,10.681-5.093q.67-.1,1.346-.164a20.274,20.274,0,0,1,9.241,1.366,19.365,19.365,0,0,1,4.416,2.5,19.31,19.31,0,0,1,7.8,16.6" transform="translate(0 0.001)" fill="#e58f9a"/>
    <path id="Path_22166" data-name="Path 22166" d="M379.5,191.57a.022.022,0,0,1,.037-.01,4.923,4.923,0,0,0,1.747,1.273,4.592,4.592,0,0,0,2.029.146.022.022,0,0,1,.021.032,2.192,2.192,0,0,1-2.568,1.1,2.113,2.113,0,0,1-1.266-2.545" transform="translate(-312.154 -157.589)" fill="#e58f9a"/>
    <path id="Path_22167" data-name="Path 22167" d="M350.883,101.755a19.184,19.184,0,0,0-15.335,7.24c1.5,3.234.289,10.113-3.7,7.88a2.808,2.808,0,0,0,3.26.462,6.19,6.19,0,0,1-3.986,2.385,5.982,5.982,0,0,0-.059,2.249q-2.8,11.688,7.243,14.839c-3.31,1.143-6.321,6.358-6.938,10.155,2.125-4.724,5.76-9.542,10.26-9.87-8.417-2.486-11.688-6.954-9.419-14.922a9.028,9.028,0,0,1-.028-1.653c3.973-.057,5.574-6.649,5.071-9.748a10.3,10.3,0,0,0,11.145,1.1,10.944,10.944,0,0,0,2.57,10.869c4.479,4.64,9.007,3.259,11.378,3.04,3-.276,2.861,2.959,1.928,4.056,8.782-10.328,1.852-27.827-13.388-28.08" transform="translate(-271.857 -83.71)" fill="#e58f9a" fill-rule="evenodd"/>
    <path id="Path_22168" data-name="Path 22168" d="M646.3,173.686V175.7a.454.454,0,0,1-.481.481h-6.346a.207.207,0,0,0-.192.192v30a.454.454,0,0,1-.481.481h-2.452a.454.454,0,0,1-.481-.481v-30a.207.207,0,0,0-.192-.192h-5.961a.454.454,0,0,1-.481-.481v-2.019a.454.454,0,0,1,.481-.481h16.1a.454.454,0,0,1,.481.481" transform="translate(-517.668 -142.494)" fill="#e58f9a"/>
    <path id="Path_22169" data-name="Path 22169" d="M766.041,189.837v16.537a.454.454,0,0,1-.481.481h-2.452a.454.454,0,0,1-.481-.481V190.125c0-3.125-1.394-4.951-3.846-4.951-2.548,0-4.134,1.971-4.134,5.192v16.008a.454.454,0,0,1-.481.481h-2.452a.454.454,0,0,1-.481-.481V173.685a.454.454,0,0,1,.481-.481h2.452a.454.454,0,0,1,.481.481V184.6c0,.144.144.192.24.048a5.931,5.931,0,0,1,5-2.452c3.942,0,6.153,2.836,6.153,7.643" transform="translate(-618.034 -142.493)" fill="#e58f9a"/>
    <path id="Path_22170" data-name="Path 22170" d="M877.769,237.478h-10.96a.207.207,0,0,0-.192.192v3.509c0,2.692,1.683,4.567,4.086,4.567a4.04,4.04,0,0,0,4.038-3.365c.1-.288.24-.432.529-.432l2.4.1a.434.434,0,0,1,.433.529c-.529,3.75-3.173,6.153-7.4,6.153-4.567,0-7.5-2.932-7.5-7.355V230.988c0-4.327,2.932-7.355,7.5-7.355,4.663,0,7.547,3.028,7.547,7.355V237a.454.454,0,0,1-.481.481m-11.153-6.249v3.221a.207.207,0,0,0,.192.192h7.884a.207.207,0,0,0,.192-.192v-3.221c0-2.74-1.682-4.615-4.182-4.615-2.4,0-4.086,1.875-4.086,4.615" transform="translate(-710.149 -183.981)" fill="#e58f9a"/>
    <path id="Path_22171" data-name="Path 22171" d="M1033.459,206.375V173.686a.454.454,0,0,1,.481-.481h2.5a.507.507,0,0,1,.529.385l5.384,13.027a.15.15,0,0,0,.288,0l5.432-13.027a.506.506,0,0,1,.529-.385h2.5a.454.454,0,0,1,.481.481v32.689a.454.454,0,0,1-.481.481h-2.452a.454.454,0,0,1-.481-.481V181.762c0-.192-.193-.192-.241-.048l-4.9,11.153c-.1.288-.24.385-.433.385a.49.49,0,0,1-.48-.385l-5-11.2c-.048-.144-.24-.144-.24.048v24.661a.454.454,0,0,1-.481.481h-2.452a.454.454,0,0,1-.481-.481" transform="translate(-850.218 -142.494)" fill="#e58f9a"/>
    <path id="Path_22172" data-name="Path 22172" d="M1181.925,225.8h2.452a.454.454,0,0,1,.481.481v23.363a.454.454,0,0,1-.481.481h-2.452a.454.454,0,0,1-.481-.481v-1.635c0-.192-.144-.192-.24-.048a5.171,5.171,0,0,1-4.807,2.5c-3.653,0-6.3-2.163-6.3-7.066V226.283a.454.454,0,0,1,.481-.481h2.451a.454.454,0,0,1,.481.481v16.344c0,3.269,1.394,4.855,3.846,4.855,2.548,0,4.086-1.971,4.086-5.192V226.283a.454.454,0,0,1,.481-.481" transform="translate(-962.63 -185.765)" fill="#e58f9a"/>
    <path id="Path_22173" data-name="Path 22173" d="M1311.93,231.884v16.2a.454.454,0,0,1-.481.481h-2.4a.454.454,0,0,1-.481-.481V232.172c0-3.317-1.538-5.288-3.749-5.288-2.4,0-3.942,1.971-3.942,5.192v16.008a.454.454,0,0,1-.481.481h-2.452a.454.454,0,0,1-.481-.481V232.172c0-3.317-1.538-5.288-3.7-5.288-2.452,0-3.99,1.971-3.99,5.192v16.008a.454.454,0,0,1-.481.481h-2.4a.454.454,0,0,1-.481-.481V224.721a.454.454,0,0,1,.481-.481h2.4a.454.454,0,0,1,.481.481v1.49c0,.144.1.192.24.048a5.922,5.922,0,0,1,4.807-2.356,5.456,5.456,0,0,1,5.24,3.413c.048.144.192.144.288-.048a5.948,5.948,0,0,1,5.528-3.365c3.846,0,6.057,3.029,6.057,7.98" transform="translate(-1058.313 -184.204)" fill="#e58f9a"/>
    <path id="Path_22174" data-name="Path 22174" d="M1487.335,231.884v16.2a.454.454,0,0,1-.481.481h-2.4a.454.454,0,0,1-.481-.481V232.172c0-3.317-1.538-5.288-3.75-5.288-2.4,0-3.942,1.971-3.942,5.192v16.008a.454.454,0,0,1-.481.481h-2.452a.454.454,0,0,1-.481-.481V232.172c0-3.317-1.538-5.288-3.7-5.288-2.452,0-3.99,1.971-3.99,5.192v16.008a.454.454,0,0,1-.48.481h-2.4a.454.454,0,0,1-.481-.481V224.721a.454.454,0,0,1,.481-.481h2.4a.454.454,0,0,1,.48.481v1.49c0,.144.1.192.24.048a5.921,5.921,0,0,1,4.807-2.356,5.456,5.456,0,0,1,5.24,3.413c.048.144.192.144.288-.048a5.947,5.947,0,0,1,5.528-3.365c3.846,0,6.057,3.029,6.057,7.98" transform="translate(-1202.617 -184.204)" fill="#e58f9a"/>
    <path id="Path_22175" data-name="Path 22175" d="M1624.956,259.261V257.29c0-.289.1-.481.24-.481h.24c2.885,0,3.75-1.154,4.759-6.538.048-.1,0-.192,0-.289l-6.1-23.651c-.1-.337.1-.529.433-.529h2.6a.485.485,0,0,1,.529.432l4.23,18.892c.048.192.144.192.192,0l4.182-18.892a.485.485,0,0,1,.529-.432l2.692.048a.372.372,0,0,1,.385.529l-6.682,25.863c-1.634,6.153-2.932,7.5-7.691,7.5h-.24c-.144,0-.288-.192-.288-.481" transform="translate(-1336.104 -185.766)" fill="#e58f9a"/>
    <path id="Path_22176" data-name="Path 22176" d="M1727.768,243v-.336a.454.454,0,0,1,.48-.481h2.308c.289,0,.481.144.481.385v.385a3.769,3.769,0,0,0,4.086,3.653,3.609,3.609,0,0,0,3.846-3.75c0-2.692-2.452-3.605-4.9-4.663-2.692-1.106-6.1-2.548-6.1-7.115,0-4.134,2.788-6.634,7.019-6.634,4.422,0,7.115,2.692,7.115,6.682v.144a.454.454,0,0,1-.481.481H1739.4c-.288,0-.481-.144-.481-.385v-.385a3.675,3.675,0,0,0-3.894-3.75,3.621,3.621,0,0,0-3.8,3.75c0,2.5,2.211,3.413,4.711,4.471,2.788,1.2,6.442,2.74,6.442,7.259,0,3.99-2.836,6.538-7.307,6.538s-7.307-2.5-7.307-6.249" transform="translate(-1421.419 -184.651)" fill="#e58f9a"/>
    <path id="Path_22177" data-name="Path 22177" d="M1849.39,189.837v16.537a.454.454,0,0,1-.481.481h-2.452a.454.454,0,0,1-.481-.481V190.125c0-3.125-1.394-4.951-3.846-4.951-2.548,0-4.134,1.971-4.134,5.192v16.008a.454.454,0,0,1-.481.481h-2.452a.454.454,0,0,1-.481-.481V173.685a.454.454,0,0,1,.481-.481h2.452a.454.454,0,0,1,.481.481V184.6c0,.144.144.192.24.048a5.931,5.931,0,0,1,5-2.452c3.942,0,6.153,2.836,6.153,7.643" transform="translate(-1509.296 -142.493)" fill="#e58f9a"/>
    <path id="Path_22178" data-name="Path 22178" d="M1959.047,231.661v16.2a.454.454,0,0,1-.481.481h-2.451a.454.454,0,0,1-.481-.481v-1.394c0-.144-.1-.192-.24-.048a6.3,6.3,0,0,1-5.289,2.307c-2.74,0-6.538-1.154-6.538-6.874,0-5.769,3.8-7.884,8.557-7.884h3.317a.207.207,0,0,0,.192-.192V231.9c0-3.173-1.538-5.288-4.038-5.288a3.678,3.678,0,0,0-3.7,3.413.491.491,0,0,1-.529.481l-2.644-.048a.4.4,0,0,1-.432-.481c.336-3.846,3.413-6.345,7.4-6.345,4.471,0,7.355,3.173,7.355,8.028m-3.413,9.278V236.9a.207.207,0,0,0-.192-.192h-3.365c-2.932,0-5,1.538-5,4.855,0,2.932,1.634,4.182,3.75,4.182a4.609,4.609,0,0,0,4.807-4.807" transform="translate(-1598.956 -183.981)" fill="#e58f9a"/>
    <path id="Path_22179" data-name="Path 22179" d="M2060.959,206.375V173.686a.454.454,0,0,1,.48-.481h2.452a.454.454,0,0,1,.48.481v19.325c0,.144.144.24.24.1l7.211-10.287a.585.585,0,0,1,.577-.288h2.5c.384,0,.529.288.288.577l-4.759,6.826a.3.3,0,0,0-.048.289l5.672,16.1c.1.336-.048.529-.385.529h-2.548a.624.624,0,0,1-.577-.385l-4.278-13.364c-.048-.192-.192-.144-.289-.048l-3.509,5a.365.365,0,0,0-.1.24v8.076a.454.454,0,0,1-.48.481h-2.452a.454.454,0,0,1-.48-.481" transform="translate(-1695.532 -142.494)" fill="#e58f9a"/>
    <path id="Path_22180" data-name="Path 22180" d="M2179.632,237.478h-10.96a.206.206,0,0,0-.192.192v3.509c0,2.692,1.682,4.567,4.086,4.567a4.04,4.04,0,0,0,4.038-3.365c.1-.288.241-.432.529-.432l2.4.1a.434.434,0,0,1,.433.529c-.529,3.75-3.173,6.153-7.4,6.153-4.567,0-7.5-2.932-7.5-7.355V230.988c0-4.327,2.933-7.355,7.5-7.355,4.663,0,7.547,3.028,7.547,7.355V237a.454.454,0,0,1-.48.481m-11.152-6.249v3.221a.206.206,0,0,0,.192.192h7.884a.207.207,0,0,0,.192-.192v-3.221c0-2.74-1.683-4.615-4.182-4.615-2.4,0-4.086,1.875-4.086,4.615" transform="translate(-1781.18 -183.981)" fill="#e58f9a"/>
  </g>
</svg>
