<svg id="Group_77142" data-name="Group 77142" xmlns="http://www.w3.org/2000/svg" xmlns:xlink="http://www.w3.org/1999/xlink" width="71.312" height="108" viewBox="0 0 71.312 108">
  <defs>
    <clipPath id="clip-path">
      <rect id="Rectangle_14" data-name="Rectangle 14" width="71.312" height="108" fill="#fff"/>
    </clipPath>
  </defs>
  <g id="Group_39" data-name="Group 39" clip-path="url(#clip-path)">
    <path id="Path_394" data-name="Path 394" d="M13.972,44.29c-5.129-5.179-7.01-11-4.009-17.988C8.419,26.205,7,25.839,6.3,24.439a5.184,5.184,0,0,1-.513-2.613,2.92,2.92,0,0,1,2.169-2.655,17.789,17.789,0,0,1,3.438-.252c.348-3.5,1.285-4.9,3.469-5.057,1.722-.126,2.926,1.008,3.48,3.292a23.131,23.131,0,0,1,3.629-1.4c1.811-.38,3.684-.452,5.523-.712a2.189,2.189,0,0,0,1.279-.545c1.9-2.187,3.645-4.507,5.609-6.629A24.2,24.2,0,0,1,43.736,1.1C49.237-.89,54.584-.021,59.709,2.45,64.366,4.7,68.062,7.994,70.092,12.886a14.366,14.366,0,0,1,.844,7.875,6.94,6.94,0,0,0,.136,2.168,18.88,18.88,0,0,1-1.839,11.425c-.718,1.523-1.426,3.051-2.163,4.565a11.1,11.1,0,0,0-.744,8.312,45.505,45.505,0,0,1,2.128,11.528,22.917,22.917,0,0,1-7.022,17.418,7.146,7.146,0,0,0-.691.706,1.083,1.083,0,0,0,.411,1.746,5.684,5.684,0,0,1,3.16,3.6,3.639,3.639,0,0,1-.721,3.595,6.148,6.148,0,0,0-.828,1.636c-.463,1.111-.8,2.286-1.35,3.349a5.913,5.913,0,0,1-5.639,3.554c.2,1.737.4,3.427.606,5.116.161,1.309.342,2.616.514,3.923a3.985,3.985,0,0,1-3.782,4.585c-.292.018-.586.01-.88.01q-23.759,0-47.517,0c-3.3,0-4.846-1.506-4.707-4.769.658-15.472,2.656-30.723,7.7-45.452A67.758,67.758,0,0,1,13.972,44.29m-1.779,9.284c-.138.3-.255.529-.344.764C11.127,56.255,10.336,58.15,9.7,60.1c-4.6,14.118-6.46,28.687-7.063,43.456-.057,1.387.388,1.8,1.836,1.8q6.709.008,13.417,0,17.266,0,34.533,0c1.528,0,1.98-.536,1.792-2.012-.339-2.653-.683-5.3-.976-7.963-.147-1.335-.334-2.573-1.676-3.327a3.983,3.983,0,0,1-1.2-1.265,1.35,1.35,0,0,0-1.49-.567,29.475,29.475,0,0,1-5.356.323c-2.509-.205-4.993-.733-7.479-1.173a3.265,3.265,0,0,0-2.813.453A23.978,23.978,0,0,1,25.4,93.715c-2.411.744-4.874,1.345-7.236,2.22A6.713,6.713,0,0,1,11.1,94.659,4.606,4.606,0,0,1,9.532,89.8a3.775,3.775,0,0,1,3.535-2.988,3.735,3.735,0,0,0,2.852-2.056c2.207-3.357,4.116-6.944,7.246-9.643a3.236,3.236,0,0,0-.222-.382A39.08,39.08,0,0,1,17,63.767a2.147,2.147,0,0,0-1.027-.993c-2.276-1.168-3.808-2.887-3.99-5.51a28.594,28.594,0,0,1,.21-3.691M31.287,15.693c4.993,2.168,7.456,4.394,9.291,8.353a1.639,1.639,0,0,0,2.639.61,10.086,10.086,0,0,1,6.832-2.281c1.5.057,3,.19,4.484.393,3.79.519,7.527.842,10.9-1.578a1.191,1.191,0,0,1,1.816.379c.449.7.192,1.286-.389,1.844a1.733,1.733,0,0,0-.568,1.128,7.506,7.506,0,0,1-1.794,5.174c-.572.716-1.187,1.4-1.743,2.125a4.12,4.12,0,0,0-.648,4.233,3.153,3.153,0,0,1-1.483,4.037c-.414.232-.891.359-1.283.619a25.971,25.971,0,0,0-3.383,2.391c-1.32,1.223-2.456,2.646-3.705,4.02,7.035,6.781,9.266,15.558,8.911,25.352a1.177,1.177,0,0,0,.391-.424,20.027,20.027,0,0,0,4.235-11.458c.236-4.506-.893-8.8-2.094-13.066a12.859,12.859,0,0,1,.672-9c.848-1.905,1.747-3.789,2.63-5.678a15.91,15.91,0,0,0,1.439-9.728,7.283,7.283,0,0,1-.153-2.5,12.335,12.335,0,0,0-2.567-10.117A19.946,19.946,0,0,0,55.3,3.533c-5.585-1.662-10.745-.958-15.4,2.826a55.464,55.464,0,0,0-8.609,9.334M14.2,24.642c-.208.251-.381.435-.526.639C9.918,30.566,10.4,36.714,14.967,41.5c1.993,2.091,4.014,4.156,6,6.25a5.893,5.893,0,0,0,4.5,1.931,24.354,24.354,0,0,0,2.733-.221c7.486-.94,12.856-7.241,12.069-14.07-.14-1.218.3-1.592,1.574-1.734a2.433,2.433,0,0,0,2.406-2.008,3.235,3.235,0,0,0-2.183-3.917c-1.532-.494-2.382,0-3.3,1.983a1.269,1.269,0,0,1-1.675.823,1.179,1.179,0,0,1-.77-1.683,12.7,12.7,0,0,1,1.536-2.614c.322-.427.511-.684.259-1.224-3.64-7.787-13.829-9.972-20.777-3.756a2.331,2.331,0,0,0-.648,2.049,5.349,5.349,0,0,1,.32,4.644,3.433,3.433,0,0,0,.083,1.315,4.559,4.559,0,0,0,1.281-.152,1.327,1.327,0,0,1,1.84.385,1.261,1.261,0,0,1-.387,1.827,3.4,3.4,0,0,1-5.5-1.786,6.449,6.449,0,0,1,.25-2.666,2.039,2.039,0,0,0-.393-2.236M57.9,77.757c.183-2.4.428-4.615.507-6.837.257-7.218-1.335-13.9-5.972-19.63a25.237,25.237,0,0,0-11.165-7.737,16.435,16.435,0,0,1-6.879,6.706c-.742.39-.434.734-.106,1.237a16.225,16.225,0,0,1,2.558-1.367,8.929,8.929,0,0,1,3.578-.707,6.308,6.308,0,0,1,4.181,10,13.208,13.208,0,0,1-3.677,3.024,26.38,26.38,0,0,1-3.766,1.667c-.037,4.4,2.272,7.284,5.762,9.424a5.907,5.907,0,0,0,1.155.63c3.289,1.1,6.565,2.248,9.893,3.22a20.936,20.936,0,0,0,3.932.371M20.052,64.213c.1.324.143.494.21.653a32.8,32.8,0,0,0,9.6,13.192A37.093,37.093,0,0,0,47.75,85.667a5.854,5.854,0,0,1,4.01,2.546,13.95,13.95,0,0,0,3.031,2.965,2.393,2.393,0,0,0,3.645-.683,21.424,21.424,0,0,0,1.629-3.208,21.972,21.972,0,0,1,.915-2.092c.973-1.591.756-3.166-.919-3.982a14.679,14.679,0,0,0-3.776-.931c-.964-.177-1.978-.108-2.929-.323a40.492,40.492,0,0,1-5.614-1.512A41.637,41.637,0,0,1,40.7,75.189a11.652,11.652,0,0,1-5.887-8.348c-.093-.644-.242-1.281-.386-2.029a29.71,29.71,0,0,1-14.379-.6M42.464,41.058c1.532.79,3.088,1.6,4.645,2.395a13.576,13.576,0,0,0,1.868.919c1.617.534,3.033-.056,4.266-2.079a8.944,8.944,0,0,1,4.743-3.858,3.5,3.5,0,0,0,1.173-.576,1.224,1.224,0,0,0,.392-.992,6.84,6.84,0,0,1,1.231-6.808c.656-.836,1.411-1.6,1.981-2.492a14.768,14.768,0,0,0,1-2.288l-.521-.222a3.474,3.474,0,0,0-.392.9,1.331,1.331,0,0,1-1.983,1.135,13.842,13.842,0,0,0-3.429-1.3c-2.822-.377-5.676-.6-8.522-.694a5.332,5.332,0,0,0-3.672,1.434,3.141,3.141,0,0,0,.237.328c2.4,2.447,2.057,7.778-1.9,9.174a.891.891,0,0,0-.454.605c-.242,1.44-.436,2.888-.659,4.421M29.228,62.782A23.736,23.736,0,0,0,39.933,60a8,8,0,0,0,2.511-2.053,3.971,3.971,0,0,0-.329-4.97c-1.14-1.217-2.755-1.319-4.5-.295-.442.259-.889.511-1.35.733-4.812,2.321-9.948,2.86-15.2,2.719-2.194-.059-2.578-.387-3.327-2.443-.114-.314-.477-.742-.746-.758a2.831,2.831,0,0,0-2.2,1.794c-.729,2.937.139,4.765,2.93,5.894a29.682,29.682,0,0,0,11.515,2.157M24.661,76.814c-.564.756-1.109,1.443-1.607,2.162-1.584,2.286-3.21,4.548-4.707,6.891-1.176,1.84-2.32,3.6-4.855,3.506a.373.373,0,0,0-.1.032,1.724,1.724,0,0,0-.972,2.826,4.236,4.236,0,0,0,4.44,1.36c1.45-.5,2.9-1.015,4.383-1.409,3.913-1.039,7.706-2.3,10.972-4.829a4.715,4.715,0,0,1,4-.637c.31.064.622.122.9.177.487-.961.3-1.535-.7-1.81a7.649,7.649,0,0,1-1.2-.548,35.934,35.934,0,0,1-10.564-7.72m-6.3-26.838a22.371,22.371,0,0,1,1.809,2.752c.263.566.507.8,1.1.78,1.644-.053,3.3.019,4.931-.142,1.8-.177,3.581-.557,5.37-.849l.082-.507a2.666,2.666,0,0,0-.965-.334c-.65.048-1.288.248-1.935.363-3.747.664-7.233.357-9.973-2.7-.033-.037-.133-.015-.229-.023l-.19.663m-2.053-3.785-.454-.026L12.7,52.213c.985-.555,2.16-.87,2.739-1.637.612-.81.657-2.05.951-3.1.01-.034.051-.066.048-.1-.041-.4-.087-.791-.131-1.187m-4.279-23.36q-.01-.188-.019-.377a10.134,10.134,0,0,0-2-.787,2.441,2.441,0,0,0-1.472.377,1.028,1.028,0,0,0-.042.948,2.341,2.341,0,0,0,1.427.53,10.163,10.163,0,0,0,2.1-.692m2.524-3.03.533.013a14.683,14.683,0,0,0,.508-2.313c.019-.266-.493-.57-.763-.857-.261.3-.752.614-.738.9a13.543,13.543,0,0,0,.46,2.254M44.588,88.044l.033-.222-4.629-1.278-.175,1.044,4.771.456" transform="translate(0 0)" fill="#fff"/>
    <path id="Path_395" data-name="Path 395" d="M91.517,144.692A1.3,1.3,0,0,1,90,143.574c-.135-.868.385-1.326,1.211-1.542a1.544,1.544,0,0,0,.776-.568c.438-.6.949-.944,1.677-.616a1.283,1.283,0,0,1,.721,1.725,2.963,2.963,0,0,1-2.872,2.119" transform="translate(-63.539 -99.366)" fill="#fff"/>
    <path id="Path_396" data-name="Path 396" d="M98.873,113.334a3.452,3.452,0,0,1-2.4,3.178c-.726.148-1.434-.051-1.553-.8a2.9,2.9,0,0,1,.54-1.576,3.157,3.157,0,0,1,.927-1.089,2.612,2.612,0,0,1,1.543-.627c.416.058.749.7.946.91" transform="translate(-67.014 -79.379)" fill="#fff"/>
    <path id="Path_397" data-name="Path 397" d="M64.378,138.693c-.868-.084-1.679-.284-1.74-1.313-.055-.933.492-1.37,1.431-1.4.234-.008.444-.358.691-.4.556-.093,1.31-.325,1.643-.065a1.773,1.773,0,0,1,.371,1.6,2.529,2.529,0,0,1-2.4,1.581" transform="translate(-44.227 -95.604)" fill="#fff"/>
    <path id="Path_398" data-name="Path 398" d="M86.2,101.919c.009.917-.869,1.545-2.144,1.523a1.238,1.238,0,0,1-1.339-1.276c-.055-.866.93-1.539,2.156-1.532a1.262,1.262,0,0,1,1.327,1.284" transform="translate(-58.409 -71.06)" fill="#fff"/>
    <path id="Path_399" data-name="Path 399" d="M56.557,121.9c-.031,1-.8,1.935-1.567,1.866a1.242,1.242,0,0,1-1.251-1.375c.016-.99.753-1.879,1.54-1.814a1.292,1.292,0,0,1,1.278,1.323" transform="translate(-37.946 -85.137)" fill="#fff"/>
    <path id="Path_400" data-name="Path 400" d="M181.924,94.7c.234-.2.653-.842,1.13-.888a1.7,1.7,0,0,1,1.355.893,1.89,1.89,0,0,0,1.318,1.4,1.073,1.073,0,0,1,.762,1.544,1.9,1.9,0,0,1-1.388.889c-1.637.025-3.213-1.763-3.177-3.838" transform="translate(-128.458 -66.237)" fill="#fff"/>
    <path id="Path_401" data-name="Path 401" d="M170.212,127.916c.006,1.026-1.012,1.819-1.726,1.282a9.863,9.863,0,0,1-2.209-2.582c-.154-.239.239-1.074.6-1.325a1.449,1.449,0,0,1,1.374.085,14.042,14.042,0,0,1,1.8,2.031,1.309,1.309,0,0,1,.168.509" transform="translate(-117.386 -88.374)" fill="#fff"/>
  </g>
</svg>
